<svg id="Group_41539" data-name="Group 41539" xmlns="http://www.w3.org/2000/svg" xmlns:xlink="http://www.w3.org/1999/xlink" width="209" height="200.706" viewBox="0 0 209 200.706">
  <defs>
    <clipPath id="clip-path">
      <rect id="Rectangle_1440" data-name="Rectangle 1440" width="209" height="200.706" fill="none"/>
    </clipPath>
    <clipPath id="clip-path-3">
      <rect id="Rectangle_1330" data-name="Rectangle 1330" width="208.705" height="35.387" fill="none"/>
    </clipPath>
    <clipPath id="clip-path-4">
      <rect id="Rectangle_1377" data-name="Rectangle 1377" width="66.959" height="45.509" fill="none"/>
    </clipPath>
    <clipPath id="clip-path-6">
      <rect id="Rectangle_1426" data-name="Rectangle 1426" width="17.003" height="4.736" fill="none"/>
    </clipPath>
    <clipPath id="clip-path-7">
      <rect id="Rectangle_1427" data-name="Rectangle 1427" width="23.271" height="6.414" fill="none"/>
    </clipPath>
    <clipPath id="clip-path-8">
      <rect id="Rectangle_1428" data-name="Rectangle 1428" width="10.01" height="11.393" fill="none"/>
    </clipPath>
    <clipPath id="clip-path-9">
      <rect id="Rectangle_1429" data-name="Rectangle 1429" width="8.405" height="8.886" fill="none"/>
    </clipPath>
    <clipPath id="clip-path-10">
      <rect id="Rectangle_1430" data-name="Rectangle 1430" width="16.804" height="14.047" fill="none"/>
    </clipPath>
    <clipPath id="clip-path-11">
      <rect id="Rectangle_1431" data-name="Rectangle 1431" width="95.126" height="58.459" fill="none"/>
    </clipPath>
    <clipPath id="clip-path-12">
      <rect id="Rectangle_1433" data-name="Rectangle 1433" width="48.912" height="15.793" fill="none"/>
    </clipPath>
    <clipPath id="clip-path-13">
      <rect id="Rectangle_1436" data-name="Rectangle 1436" width="41.567" height="34.192" fill="none"/>
    </clipPath>
    <clipPath id="clip-path-14">
      <rect id="Rectangle_1437" data-name="Rectangle 1437" width="2.21" height="48.284" fill="none"/>
    </clipPath>
  </defs>
  <g id="Group_41577" data-name="Group 41577" clip-path="url(#clip-path)">
    <g id="Group_41576" data-name="Group 41576">
      <g id="Group_41575" data-name="Group 41575" clip-path="url(#clip-path)">
        <path id="Path_9440" data-name="Path 9440" d="M208.544,365.414c-23.6-3.973-61.512-6.55-104.272-6.55S23.6,361.441,0,365.414v34.013H208.7V365.414Z" transform="translate(0 -208.661)" fill="#fff"/>
        <g id="Group_41541" data-name="Group 41541" transform="translate(0 155.379)" opacity="0.1">
          <g id="Group_41540" data-name="Group 41540">
            <g id="Group_41539-2" data-name="Group 41539" clip-path="url(#clip-path-3)">
              <path id="Path_9441" data-name="Path 9441" d="M208.544,372.6c-2.8-.471-5.8-.921-8.983-1.351a5.363,5.363,0,0,1,.113,1.079c0,12.268-42.677,22.213-95.322,22.213S9.031,384.6,9.031,372.332a5.35,5.35,0,0,1,.117-1.1c-3.245.437-6.3.894-9.148,1.374v34.013H208.7V372.6Z" transform="translate(0 -371.231)" fill="#001627"/>
            </g>
          </g>
        </g>
        <path id="Path_9442" data-name="Path 9442" d="M209.249,452.075c-23.595-1.833-61.511-3.022-104.272-3.022S24.3,450.242.7,452.075v9.491h208.7v-9.491Z" transform="translate(-0.41 -261.102)" fill="#b3c1c6"/>
        <path id="Path_9443" data-name="Path 9443" d="M122,363.225l-7.029,13.666.26,2.05,104.391.911v-2.733L212.338,363Z" transform="translate(-66.853 -211.064)" fill="#414074"/>
        <path id="Path_9444" data-name="Path 9444" d="M114.976,396.191l.26,2.05,104.391.911v-2.733Z" transform="translate(-66.853 -230.365)" fill="#2d2d51"/>
        <path id="Path_9445" data-name="Path 9445" d="M122.427,194.737l99.715-.963-5.521,64.875-92.244-1.817L120.8,192.865" transform="translate(-70.241 -112.141)" fill="#2d2d51"/>
        <path id="Path_9446" data-name="Path 9446" d="M120.974,192.791l-.171.031,3.573,61.792,92.244,1.817,5.522-62.7Z" transform="translate(-70.241 -112.098)" fill="#414074"/>
        <path id="Path_9447" data-name="Path 9447" d="M130.116,198.682l93.544.839-5.1,57.878-85.148-1.678Z" transform="translate(-75.656 -115.524)" fill="#fff"/>
        <g id="Group_41544" data-name="Group 41544" transform="translate(73.483 93.008)" opacity="0.5">
          <g id="Group_41543" data-name="Group 41543">
            <g id="Group_41542" data-name="Group 41542" clip-path="url(#clip-path-4)">
              <rect id="Rectangle_1331" data-name="Rectangle 1331" width="66.591" height="45.141" transform="translate(0.184 0.184)" fill="#fff"/>
              <rect id="Rectangle_1332" data-name="Rectangle 1332" width="66.591" height="45.141" transform="translate(0.184 0.184)" fill="none" stroke="#888cf0" stroke-width="0.879"/>
              <rect id="Rectangle_1333" data-name="Rectangle 1333" width="3.449" height="1.493" transform="translate(2.133 3.75)" fill="#888cf0"/>
              <rect id="Rectangle_1334" data-name="Rectangle 1334" width="3.449" height="1.493" transform="translate(2.133 6.611)" fill="#888cf0"/>
              <rect id="Rectangle_1335" data-name="Rectangle 1335" width="3.449" height="1.493" transform="translate(2.133 9.473)" fill="#888cf0"/>
              <rect id="Rectangle_1336" data-name="Rectangle 1336" width="3.449" height="1.493" transform="translate(2.133 12.335)" fill="#888cf0"/>
              <rect id="Rectangle_1337" data-name="Rectangle 1337" width="3.449" height="1.492" transform="translate(2.133 15.197)" fill="#888cf0"/>
              <rect id="Rectangle_1338" data-name="Rectangle 1338" width="3.449" height="1.493" transform="translate(2.133 18.059)" fill="#888cf0"/>
              <rect id="Rectangle_1339" data-name="Rectangle 1339" width="3.449" height="1.493" transform="translate(2.133 20.92)" fill="#888cf0"/>
              <rect id="Rectangle_1340" data-name="Rectangle 1340" width="3.449" height="1.493" transform="translate(2.133 23.782)" fill="#888cf0"/>
              <rect id="Rectangle_1341" data-name="Rectangle 1341" width="3.449" height="1.493" transform="translate(2.133 26.644)" fill="#888cf0"/>
              <rect id="Rectangle_1342" data-name="Rectangle 1342" width="3.449" height="1.493" transform="translate(2.133 29.506)" fill="#888cf0"/>
              <rect id="Rectangle_1343" data-name="Rectangle 1343" width="3.449" height="1.493" transform="translate(2.133 32.367)" fill="#888cf0"/>
              <rect id="Rectangle_1344" data-name="Rectangle 1344" width="3.449" height="1.493" transform="translate(2.133 35.229)" fill="#888cf0"/>
              <rect id="Rectangle_1345" data-name="Rectangle 1345" width="3.449" height="1.493" transform="translate(2.133 38.091)" fill="#888cf0"/>
              <rect id="Rectangle_1346" data-name="Rectangle 1346" width="3.449" height="1.493" transform="translate(2.133 40.953)" fill="#888cf0"/>
              <rect id="Rectangle_1347" data-name="Rectangle 1347" width="6.035" height="1.493" transform="translate(13.649 3.75)" fill="#ffc979"/>
              <rect id="Rectangle_1348" data-name="Rectangle 1348" width="28.389" height="1.493" transform="translate(21.285 3.75)" fill="#888cf0"/>
              <rect id="Rectangle_1349" data-name="Rectangle 1349" width="7.328" height="1.493" transform="translate(11.524 6.611)" fill="#ffc979"/>
              <rect id="Rectangle_1350" data-name="Rectangle 1350" width="31.715" height="1.493" transform="translate(20.638 6.611)" fill="#888cf0"/>
              <rect id="Rectangle_1351" data-name="Rectangle 1351" width="10.346" height="1.493" transform="translate(18.884 9.473)" fill="#ffc979"/>
              <rect id="Rectangle_1352" data-name="Rectangle 1352" width="25.126" height="1.493" transform="translate(30.707 9.473)" fill="#888cf0"/>
              <rect id="Rectangle_1353" data-name="Rectangle 1353" width="9.915" height="1.493" transform="translate(24.272 12.335)" fill="#ffc979"/>
              <rect id="Rectangle_1354" data-name="Rectangle 1354" width="25.157" height="1.493" transform="translate(36.096 12.335)" fill="#888cf0"/>
              <rect id="Rectangle_1355" data-name="Rectangle 1355" width="7.113" height="1.492" transform="translate(14.465 15.197)" fill="#ffc979"/>
              <rect id="Rectangle_1356" data-name="Rectangle 1356" width="28.806" height="1.492" transform="translate(23.333 15.197)" fill="#888cf0"/>
              <rect id="Rectangle_1357" data-name="Rectangle 1357" width="6.035" height="1.493" transform="translate(11.432 18.059)" fill="#ffc979"/>
              <rect id="Rectangle_1358" data-name="Rectangle 1358" width="30.607" height="1.493" transform="translate(19.068 18.059)" fill="#888cf0"/>
              <rect id="Rectangle_1359" data-name="Rectangle 1359" width="8.837" height="1.493" transform="translate(25.427 20.92)" fill="#ffc979"/>
              <rect id="Rectangle_1360" data-name="Rectangle 1360" width="23.509" height="1.493" transform="translate(36.265 20.92)" fill="#888cf0"/>
              <rect id="Rectangle_1361" data-name="Rectangle 1361" width="10.346" height="1.493" transform="translate(14.942 23.782)" fill="#ffc979"/>
              <rect id="Rectangle_1362" data-name="Rectangle 1362" width="27.589" height="1.493" transform="translate(27.012 23.782)" fill="#888cf0"/>
              <rect id="Rectangle_1363" data-name="Rectangle 1363" width="18.967" height="1.493" transform="translate(19.746 26.644)" fill="#ffc979"/>
              <rect id="Rectangle_1364" data-name="Rectangle 1364" width="23.155" height="1.493" transform="translate(40.437 26.644)" fill="#888cf0"/>
              <rect id="Rectangle_1365" data-name="Rectangle 1365" width="14.01" height="1.493" transform="translate(18.653 29.506)" fill="#ffc979"/>
              <rect id="Rectangle_1366" data-name="Rectangle 1366" width="23.017" height="1.493" transform="translate(35.034 29.506)" fill="#888cf0"/>
              <rect id="Rectangle_1367" data-name="Rectangle 1367" width="13.795" height="1.493" transform="translate(14.942 32.367)" fill="#ffc979"/>
              <rect id="Rectangle_1368" data-name="Rectangle 1368" width="25.126" height="1.493" transform="translate(30.461 32.367)" fill="#888cf0"/>
              <rect id="Rectangle_1369" data-name="Rectangle 1369" width="9.484" height="1.493" transform="translate(14.388 35.229)" fill="#ffc979"/>
              <rect id="Rectangle_1370" data-name="Rectangle 1370" width="25.926" height="1.493" transform="translate(25.966 35.229)" fill="#888cf0"/>
              <rect id="Rectangle_1371" data-name="Rectangle 1371" width="9.053" height="1.493" transform="translate(11.647 38.091)" fill="#ffc979"/>
              <rect id="Rectangle_1372" data-name="Rectangle 1372" width="35.071" height="1.493" transform="translate(22.24 38.091)" fill="#888cf0"/>
              <rect id="Rectangle_1373" data-name="Rectangle 1373" width="10.346" height="1.493" transform="translate(26.766 40.953)" fill="#ffc979"/>
              <rect id="Rectangle_1374" data-name="Rectangle 1374" width="24.633" height="1.493" transform="translate(39.083 40.953)" fill="#888cf0"/>
              <rect id="Rectangle_1375" data-name="Rectangle 1375" width="66.591" height="1.8" transform="translate(0.184 0.331)" fill="#888cf0"/>
              <rect id="Rectangle_1376" data-name="Rectangle 1376" width="66.591" height="1.8" transform="translate(0.184 0.331)" fill="none" stroke="#888cf0" stroke-width="0.176"/>
            </g>
          </g>
        </g>
        <rect id="Rectangle_1378" data-name="Rectangle 1378" width="66.591" height="45.141" transform="translate(59.855 87.751)" fill="#fff"/>
        <g id="Group_41547" data-name="Group 41547" transform="translate(59.671 87.567)" opacity="0.5">
          <g id="Group_41546" data-name="Group 41546">
            <g id="Group_41545" data-name="Group 41545" clip-path="url(#clip-path-4)">
              <rect id="Rectangle_1379" data-name="Rectangle 1379" width="66.591" height="45.141" transform="translate(0.184 0.184)" fill="#fff"/>
              <rect id="Rectangle_1380" data-name="Rectangle 1380" width="66.591" height="45.141" transform="translate(0.184 0.184)" fill="none" stroke="#888cf0" stroke-width="0.879"/>
              <rect id="Rectangle_1381" data-name="Rectangle 1381" width="3.449" height="1.493" transform="translate(2.133 3.75)" fill="#888cf0"/>
              <rect id="Rectangle_1382" data-name="Rectangle 1382" width="3.449" height="1.493" transform="translate(2.133 6.611)" fill="#888cf0"/>
              <rect id="Rectangle_1383" data-name="Rectangle 1383" width="3.449" height="1.493" transform="translate(2.133 9.473)" fill="#888cf0"/>
              <rect id="Rectangle_1384" data-name="Rectangle 1384" width="3.449" height="1.493" transform="translate(2.133 12.335)" fill="#888cf0"/>
              <rect id="Rectangle_1385" data-name="Rectangle 1385" width="3.449" height="1.492" transform="translate(2.133 15.197)" fill="#888cf0"/>
              <rect id="Rectangle_1386" data-name="Rectangle 1386" width="3.449" height="1.493" transform="translate(2.133 18.059)" fill="#888cf0"/>
              <rect id="Rectangle_1387" data-name="Rectangle 1387" width="3.449" height="1.493" transform="translate(2.133 20.92)" fill="#888cf0"/>
              <rect id="Rectangle_1388" data-name="Rectangle 1388" width="3.449" height="1.493" transform="translate(2.133 23.782)" fill="#888cf0"/>
              <rect id="Rectangle_1389" data-name="Rectangle 1389" width="3.449" height="1.493" transform="translate(2.133 26.644)" fill="#888cf0"/>
              <rect id="Rectangle_1390" data-name="Rectangle 1390" width="3.449" height="1.493" transform="translate(2.133 29.506)" fill="#888cf0"/>
              <rect id="Rectangle_1391" data-name="Rectangle 1391" width="3.449" height="1.493" transform="translate(2.133 32.367)" fill="#888cf0"/>
              <rect id="Rectangle_1392" data-name="Rectangle 1392" width="3.449" height="1.493" transform="translate(2.133 35.229)" fill="#888cf0"/>
              <rect id="Rectangle_1393" data-name="Rectangle 1393" width="3.449" height="1.493" transform="translate(2.133 38.091)" fill="#888cf0"/>
              <rect id="Rectangle_1394" data-name="Rectangle 1394" width="3.449" height="1.493" transform="translate(2.133 40.953)" fill="#888cf0"/>
              <rect id="Rectangle_1395" data-name="Rectangle 1395" width="6.035" height="1.493" transform="translate(13.649 3.75)" fill="#ffc979"/>
              <rect id="Rectangle_1396" data-name="Rectangle 1396" width="28.389" height="1.493" transform="translate(21.285 3.75)" fill="#888cf0"/>
              <rect id="Rectangle_1397" data-name="Rectangle 1397" width="7.328" height="1.493" transform="translate(11.524 6.611)" fill="#ffc979"/>
              <rect id="Rectangle_1398" data-name="Rectangle 1398" width="31.715" height="1.493" transform="translate(20.638 6.611)" fill="#888cf0"/>
              <rect id="Rectangle_1399" data-name="Rectangle 1399" width="10.346" height="1.493" transform="translate(18.884 9.473)" fill="#ffc979"/>
              <rect id="Rectangle_1400" data-name="Rectangle 1400" width="25.126" height="1.493" transform="translate(30.707 9.473)" fill="#888cf0"/>
              <rect id="Rectangle_1401" data-name="Rectangle 1401" width="9.915" height="1.493" transform="translate(24.272 12.335)" fill="#ffc979"/>
              <rect id="Rectangle_1402" data-name="Rectangle 1402" width="25.157" height="1.493" transform="translate(36.096 12.335)" fill="#888cf0"/>
              <rect id="Rectangle_1403" data-name="Rectangle 1403" width="7.113" height="1.492" transform="translate(14.465 15.197)" fill="#ffc979"/>
              <rect id="Rectangle_1404" data-name="Rectangle 1404" width="28.806" height="1.492" transform="translate(23.333 15.197)" fill="#888cf0"/>
              <rect id="Rectangle_1405" data-name="Rectangle 1405" width="6.035" height="1.493" transform="translate(11.432 18.059)" fill="#ffc979"/>
              <rect id="Rectangle_1406" data-name="Rectangle 1406" width="30.607" height="1.493" transform="translate(19.068 18.059)" fill="#888cf0"/>
              <rect id="Rectangle_1407" data-name="Rectangle 1407" width="8.837" height="1.493" transform="translate(25.427 20.92)" fill="#ffc979"/>
              <rect id="Rectangle_1408" data-name="Rectangle 1408" width="23.509" height="1.493" transform="translate(36.265 20.92)" fill="#888cf0"/>
              <rect id="Rectangle_1409" data-name="Rectangle 1409" width="10.346" height="1.493" transform="translate(14.942 23.782)" fill="#ffc979"/>
              <rect id="Rectangle_1410" data-name="Rectangle 1410" width="27.589" height="1.493" transform="translate(27.012 23.782)" fill="#888cf0"/>
              <rect id="Rectangle_1411" data-name="Rectangle 1411" width="18.967" height="1.493" transform="translate(19.746 26.644)" fill="#ffc979"/>
              <rect id="Rectangle_1412" data-name="Rectangle 1412" width="23.155" height="1.493" transform="translate(40.437 26.644)" fill="#888cf0"/>
              <rect id="Rectangle_1413" data-name="Rectangle 1413" width="14.01" height="1.493" transform="translate(18.653 29.506)" fill="#ffc979"/>
              <rect id="Rectangle_1414" data-name="Rectangle 1414" width="23.017" height="1.493" transform="translate(35.034 29.506)" fill="#888cf0"/>
              <rect id="Rectangle_1415" data-name="Rectangle 1415" width="13.795" height="1.493" transform="translate(14.942 32.367)" fill="#ffc979"/>
              <rect id="Rectangle_1416" data-name="Rectangle 1416" width="25.126" height="1.493" transform="translate(30.461 32.367)" fill="#888cf0"/>
              <rect id="Rectangle_1417" data-name="Rectangle 1417" width="9.484" height="1.493" transform="translate(14.388 35.229)" fill="#ffc979"/>
              <rect id="Rectangle_1418" data-name="Rectangle 1418" width="25.926" height="1.493" transform="translate(25.966 35.229)" fill="#888cf0"/>
              <rect id="Rectangle_1419" data-name="Rectangle 1419" width="9.053" height="1.493" transform="translate(11.647 38.091)" fill="#ffc979"/>
              <rect id="Rectangle_1420" data-name="Rectangle 1420" width="35.071" height="1.493" transform="translate(22.24 38.091)" fill="#888cf0"/>
              <rect id="Rectangle_1421" data-name="Rectangle 1421" width="10.346" height="1.493" transform="translate(26.766 40.953)" fill="#ffc979"/>
              <rect id="Rectangle_1422" data-name="Rectangle 1422" width="24.633" height="1.493" transform="translate(39.083 40.953)" fill="#888cf0"/>
              <rect id="Rectangle_1423" data-name="Rectangle 1423" width="66.591" height="1.8" transform="translate(0.184 0.331)" fill="#888cf0"/>
              <rect id="Rectangle_1424" data-name="Rectangle 1424" width="66.591" height="1.8" transform="translate(0.184 0.331)" fill="none" stroke="#888cf0" stroke-width="0.176"/>
            </g>
          </g>
        </g>
        <g id="Group_41550" data-name="Group 41550" transform="translate(27.843 160.217)" opacity="0.2">
          <g id="Group_41549" data-name="Group 41549">
            <g id="Group_41548" data-name="Group 41548" clip-path="url(#clip-path-6)">
              <path id="Path_9448" data-name="Path 9448" d="M66.521,385.158c0,1.308,3.806,2.368,8.5,2.368s8.5-1.06,8.5-2.368-3.806-2.368-8.5-2.368-8.5,1.06-8.5,2.368" transform="translate(-66.521 -382.79)" fill="#001627"/>
            </g>
          </g>
        </g>
        <path id="Path_9449" data-name="Path 9449" d="M72.047,348.939l.712,15.992,13.638-.269L87.486,349Z" transform="translate(-41.892 -202.89)" fill="#f1b762"/>
        <path id="Path_9450" data-name="Path 9450" d="M72.915,346.5c0,1.023,3.389,1.853,7.568,1.853s7.205-.83,7.205-1.853-3.025-1.853-7.205-1.853-7.568.83-7.568,1.853" transform="translate(-42.396 -200.394)" fill="#c68d42"/>
        <path id="Path_9451" data-name="Path 9451" d="M72.915,346.5c0,1.023,3.389,1.853,7.568,1.853s7.205-.83,7.205-1.853-3.025-1.853-7.205-1.853S72.915,345.475,72.915,346.5Z" transform="translate(-42.396 -200.394)" fill="none" stroke="#f1b762" stroke-width="1.791"/>
        <path id="Path_9452" data-name="Path 9452" d="M73.747,384.087c0,1.024,3.514,2.168,7.075,2.168s6.563-1.3,6.563-2.324-2.887-1.853-6.448-1.853-7.19.986-7.19,2.009" transform="translate(-42.88 -222.159)" fill="#f1b762"/>
        <path id="Path_9453" data-name="Path 9453" d="M62.7,361a4.108,4.108,0,1,0,4.108-4.108A4.108,4.108,0,0,0,62.7,361Z" transform="translate(-36.459 -207.512)" fill="none" stroke="#f1b762" stroke-width="4.277"/>
        <line id="Line_1" data-name="Line 1" y2="6.162" transform="translate(41.765 147.208)" fill="none" stroke="#959faf" stroke-linecap="round" stroke-width="1.069"/>
        <path id="Path_9454" data-name="Path 9454" d="M96.931,362.75l-2.054,2.111.285,3.2,3.88-.171.228-3.709Z" transform="translate(-55.166 -210.921)" fill="#fff"/>
        <g id="Group_41553" data-name="Group 41553" transform="translate(173.879 156.307)" opacity="0.2">
          <g id="Group_41552" data-name="Group 41552">
            <g id="Group_41551" data-name="Group 41551" clip-path="url(#clip-path-7)">
              <path id="Path_9455" data-name="Path 9455" d="M438.7,376.655c0,1.771-5.209,3.207-11.635,3.207s-11.636-1.436-11.636-3.207,5.209-3.207,11.636-3.207,11.635,1.436,11.635,3.207" transform="translate(-415.431 -373.448)" fill="#001627"/>
            </g>
          </g>
        </g>
        <path id="Path_9456" data-name="Path 9456" d="M409.176,287.146a2.442,2.442,0,1,1-3.836-3.022l5.128-6.509a2.441,2.441,0,1,1,3.836,3.022Z" transform="translate(-235.38 -160.878)" fill="#f1b762"/>
        <g id="Group_41556" data-name="Group 41556" transform="translate(169.436 115.806)" opacity="0.1">
          <g id="Group_41555" data-name="Group 41555">
            <g id="Group_41554" data-name="Group 41554" clip-path="url(#clip-path-8)">
              <path id="Path_9457" data-name="Path 9457" d="M409.176,287.146a2.442,2.442,0,1,1-3.836-3.022l5.128-6.509a2.441,2.441,0,1,1,3.836,3.022Z" transform="translate(-404.817 -276.684)" fill="#001627"/>
            </g>
          </g>
        </g>
        <path id="Path_9458" data-name="Path 9458" d="M415.822,371.034c-.075,2.222,4.408,3.28,10.085,3.47s10.4-.56,10.473-2.781-4.848-6.158-10.526-6.348-9.959,3.438-10.033,5.66" transform="translate(-241.779 -212.442)" fill="#f1b762"/>
        <g id="Group_41559" data-name="Group 41559" transform="translate(186.198 153.176)" opacity="0.1">
          <g id="Group_41558" data-name="Group 41558">
            <g id="Group_41557" data-name="Group 41557" clip-path="url(#clip-path-9)">
              <path id="Path_9459" data-name="Path 9459" d="M444.863,365.967c3.066,1.624,5.172,4.218,5.114,5.946-.05,1.5-1.624,2.444-4.024,2.939,4.169-.156,7.253-.99,7.313-2.782.065-1.939-3.677-5.183-8.4-6.1" transform="translate(-444.863 -365.967)" fill="#001627"/>
            </g>
          </g>
        </g>
        <line id="Line_2" data-name="Line 2" x1="12.083" y2="39.829" transform="translate(185.067 114.24)" fill="none" stroke="#f1b762" stroke-linecap="round" stroke-width="2.138"/>
        <line id="Line_3" data-name="Line 3" x1="12.083" y2="39.829" transform="translate(187.528 114.24)" fill="none" stroke="#f1b762" stroke-linecap="round" stroke-width="2.138"/>
        <line id="Line_4" data-name="Line 4" y1="10.166" x2="30.538" transform="translate(171.969 116.906)" fill="none" stroke="#f1b762" stroke-linecap="round" stroke-width="2.138"/>
        <line id="Line_5" data-name="Line 5" y1="10.166" x2="30.538" transform="translate(170.659 114.822)" fill="none" stroke="#f1b762" stroke-linecap="round" stroke-width="2.138"/>
        <path id="Path_9460" data-name="Path 9460" d="M398.99,302.263a10.671,10.671,0,0,0,.771-.949c3.113-4.329,2.462-10.121-1.454-12.937s-9.615-1.59-12.728,2.739a10.818,10.818,0,0,0-.654,1.033Z" transform="translate(-223.814 -166.796)" fill="#f1b762"/>
        <g id="Group_41562" data-name="Group 41562" transform="translate(161.111 121.42)" opacity="0.1">
          <g id="Group_41561" data-name="Group 41561">
            <g id="Group_41560" data-name="Group 41560" clip-path="url(#clip-path-10)">
              <path id="Path_9461" data-name="Path 9461" d="M398.307,290.257c-.081-.059-.167-.1-.25-.16a9.624,9.624,0,0,1-.533,10.86,10.72,10.72,0,0,1-.771.949l-11.566-8.317c-.09.146-.179.292-.262.44l14.065,10.114a10.66,10.66,0,0,0,.771-.949c3.113-4.329,2.462-10.122-1.454-12.938" transform="translate(-384.925 -290.098)" fill="#001627"/>
            </g>
          </g>
        </g>
        <path id="Path_9462" data-name="Path 9462" d="M390.715,305.339c3.965,2.813,7.683,4.383,8.306,3.505s-2.087-3.868-6.052-6.681-7.684-4.383-8.306-3.506,2.088,3.869,6.053,6.682" transform="translate(-223.61 -173.513)" fill="#fff"/>
        <path id="Path_9463" data-name="Path 9463" d="M198.753,228.392l-3.58,7.459,3.133,2.387Z" transform="translate(-113.483 -132.798)" fill="#edaa98"/>
        <path id="Path_9464" data-name="Path 9464" d="M202.632,201.529s-8.055,27.9,7.608,24.166l.9,9.1,12.083,1.193.447-12.978s4.177-26.851,2.089-29.387-19.393-7.161-23.122,7.906" transform="translate(-116.616 -111.008)" fill="#ffc1ac"/>
        <path id="Path_9465" data-name="Path 9465" d="M206.84,201.529s-8.474,27.9,5.578,24.166l.365,9.789,12.526.5.4-12.978s3.747-26.851,1.874-29.387-17.4-7.161-20.745,7.906" transform="translate(-118.794 -111.008)" fill="#edaa98"/>
        <path id="Path_9466" data-name="Path 9466" d="M224.819,182.7a7.564,7.564,0,0,0-5.748-3.085c-.26-4.519-6.93-4.772-12.153-3.777-6.963,1.326-12.978-4.475-12.978-4.475-1.79,6.265,1.79,9.249,1.79,9.249-1.641-.3-3.878-3.431-3.878-3.431-.9,6.713,5.818,11.039,5.818,11.039a7.322,7.322,0,0,0,2.088,5.818l.3,7.757H201.4a12.233,12.233,0,0,1,.746-5.221c1.044-2.834,3.729-.3,3.282,4.326s-2.983,2.685-2.983,2.685c.447,3.58,5.072,8.8,5.072,8.8H218.4c10.889-17.752,9.249-25.956,6.414-29.685" transform="translate(-111.504 -99.641)" fill="#001627"/>
        <path id="Path_9467" data-name="Path 9467" d="M198.885,192.965a21.076,21.076,0,0,1,6.643-11.048c3.493-2.883,8.045-5.052,12.6-4.605-2.058-2.26-7.084-2.255-11.211-1.469-6.963,1.326-12.978-4.475-12.978-4.475-1.79,6.265,1.79,9.249,1.79,9.249-1.641-.3-3.878-3.431-3.878-3.431-.9,6.713,5.818,11.039,5.818,11.039a6.9,6.9,0,0,0,1.215,4.741" transform="translate(-111.504 -99.641)" fill="#03243a"/>
        <path id="Path_9468" data-name="Path 9468" d="M219.141,232.7a4.8,4.8,0,0,0-.455-.411,1.863,1.863,0,0,0-.236-.164.825.825,0,0,0-.231-.1.2.2,0,0,0-.163.009c-.02,0-.034.031-.05.04s-.034.043-.051.064a.233.233,0,0,0-.052.087l-.049.1-.075.249.017-.073c-.034.6-.069,1.19-.14,1.781s-.155,1.18-.259,1.768l-.257-.38a2.335,2.335,0,0,1,.337.142,3.347,3.347,0,0,1,.313.183,1.783,1.783,0,0,1,.295.245c.044.055.088.108.128.165a1.164,1.164,0,0,1,.1.2.667.667,0,0,1,.031.233.544.544,0,0,1-.053.219.76.76,0,0,1-.105.176l-.129.136a1.16,1.16,0,0,1-.144.1c-.049.03-.095.065-.146.09-.1.047-.208.088-.308.13a3.075,3.075,0,0,0,.4-.494l.06-.126a.422.422,0,0,0,.025-.118c.015-.038-.011-.068-.01-.1s-.031-.054-.036-.079-.048-.049-.066-.074l-.093-.07a2.451,2.451,0,0,0-.234-.123,2.707,2.707,0,0,0-.268-.1c-.091-.025-.192-.052-.272-.07l-.275-.062.017-.318c.032-.6.077-1.189.148-1.78s.165-1.179.267-1.766l.01-.061.006-.012c.054-.107.105-.212.163-.316a1.438,1.438,0,0,1,.253-.307.609.609,0,0,1,.183-.128.6.6,0,0,1,.231-.069.568.568,0,0,1,.235.015.605.605,0,0,1,.2.077.968.968,0,0,1,.283.231,1.964,1.964,0,0,1,.2.264,2.572,2.572,0,0,1,.265.578" transform="translate(-125.989 -134.625)" fill="#edaa98"/>
        <path id="Path_9469" data-name="Path 9469" d="M366.645,367.16s-.9,2.365.326,3.1,8.563.653,8.808-1.549a5.142,5.142,0,0,0-3.751-5.138c-2.2-.57-5.383,3.588-5.383,3.588" transform="translate(-213.001 -211.367)" fill="#414074"/>
        <path id="Path_9470" data-name="Path 9470" d="M374.553,367.522a3.954,3.954,0,0,1,.085,1.314c-.22,1.98-6.177,2.245-8.264,1.745a1.912,1.912,0,0,0,.6,2.007c1.223.734,8.563.652,8.808-1.549a4.718,4.718,0,0,0-1.227-3.516" transform="translate(-213.002 -213.695)" fill="#2d2d51"/>
        <path id="Path_9471" data-name="Path 9471" d="M355.98,359.487s5.79-3.507,6.606-3.262,1.631.571,1.631.571,1.142-.652,1.876-.326,4.078,1.631,3.507,2.446-2.446.163-2.446.163,2.365.571,2.772,1.06a.876.876,0,0,1-.9,1.06,15.917,15.917,0,0,1-3.507-.9s-3.181,4.159-5.627,4.159-3.915-4.975-3.915-4.975" transform="translate(-206.984 -207.12)" fill="#ffc1ac"/>
        <path id="Path_9472" data-name="Path 9472" d="M141.021,358.188s-5.038-3.507-5.748-3.262-1.419.571-1.419.571-.993-.653-1.632-.326-3.548,1.631-3.051,2.446,2.129.163,2.129.163a7.474,7.474,0,0,0-2.413,1.06s-.142,1.06.781,1.06a12.454,12.454,0,0,0,3.051-.9s2.767,4.159,4.9,4.159,3.406-4.974,3.406-4.974" transform="translate(-74.937 -206.364)" fill="#ffc1ac"/>
        <path id="Path_9473" data-name="Path 9473" d="M230.38,316.57c-2.238,0-13.055,3.952-13.055,3.952s-8.055-23.271-14.768-29.984-28.417-4.7-38.711-2.909c-6.529,1.136-10.859,9.8-12.9,30.6-4.29-2.235-6.327-3.108-8.155-2.651-4.893,1.224-3.67,7.136-3.67,7.136s8.081,6.037,11.213,6.932c1.915.547,6.864,7,10.4-16.107-.206,5.506-2.718,16.582-.469,28.687l43.857,4.027s-1.521-16.057-2.068-28.364c3.515,3.766,7.466,13.893,11.417,14.136,3.252.2,16.236-3.82,19.369-5.609s-.224-9.846-2.462-9.846" transform="translate(-80.815 -166.228)" fill="#f1b762"/>
        <g id="Group_41565" data-name="Group 41565" transform="translate(58.175 121.566)" opacity="0.1">
          <g id="Group_41564" data-name="Group 41564">
            <g id="Group_41563" data-name="Group 41563" clip-path="url(#clip-path-11)">
              <path id="Path_9474" data-name="Path 9474" d="M231.973,321.131c-2.238,0-13.833,4.522-13.833,4.522s-.286-.936-.8-2.486l-.018.007s-6.72-19.412-13-27.891c-.059-.062-.118-.125-.177-.184-6.713-6.713-28.418-4.7-38.711-2.909-6.529,1.135-10.859,9.8-12.9,30.6a75.651,75.651,0,0,0-10.413-4.347c-4.107,1.573-3,6.923-3,6.923s8.081,6.037,11.213,6.932c1.915.547,6.864,7,10.4-16.106-.206,5.505-2.718,16.582-.469,28.686l43.857,4.028s-1.521-16.057-2.068-28.365c3.515,3.766,7.466,13.893,11.417,14.136,3.252.2,16.236-3.819,19.369-5.609,2.084-1.191,1.295-5.154-.125-7.674a1.4,1.4,0,0,0-.745-.262" transform="translate(-138.991 -290.446)" fill="#001627"/>
            </g>
          </g>
        </g>
        <path id="Path_9475" data-name="Path 9475" d="M244,440.985h20.342c2.636-5.383,4.991-11.107,4.754-12.384-2.238-12.083-34.449-14.944-34.449-14.944-4.461,1.38-7.542,2.441-12.246,2.988-10.028,1.166-20.115.8-30.162.052a49.889,49.889,0,0,0,2.4,11.9h36.222c4.927,2.864,9.269,7.8,13.143,12.384" transform="translate(-111.78 -240.521)" fill="#001627"/>
        <rect id="Rectangle_1432" data-name="Rectangle 1432" width="69.05" height="16.205" rx="8.103" transform="translate(71.712 184.501)" fill="#414074"/>
        <g id="Group_41568" data-name="Group 41568" transform="translate(71.712 184.912)" opacity="0.4">
          <g id="Group_41567" data-name="Group 41567">
            <g id="Group_41566" data-name="Group 41566" clip-path="url(#clip-path-12)">
              <path id="Path_9476" data-name="Path 9476" d="M220.246,453.15a4.249,4.249,0,0,1-4.036,4.435H175.37a4.249,4.249,0,0,1-4.036-4.435v-6.925a4.249,4.249,0,0,1,4.036-4.434h40.841a4.249,4.249,0,0,1,4.036,4.434Z" transform="translate(-171.334 -441.791)" fill="#001627"/>
            </g>
          </g>
        </g>
        <rect id="Rectangle_1434" data-name="Rectangle 1434" width="46.095" height="38.275" rx="9.833" transform="translate(74.816 130.798)" fill="#414074"/>
        <g id="Group_41571" data-name="Group 41571" transform="translate(74.816 134.881)" opacity="0.4">
          <g id="Group_41570" data-name="Group 41570">
            <g id="Group_41569" data-name="Group 41569" clip-path="url(#clip-path-13)">
              <rect id="Rectangle_1435" data-name="Rectangle 1435" width="41.567" height="34.192" rx="8.867" transform="translate(0 0)" fill="#001627"/>
            </g>
          </g>
        </g>
        <path id="Path_9477" data-name="Path 9477" d="M228.989,411.328V366.561a3.91,3.91,0,1,0-7.819,0v44.767Z" transform="translate(-128.599 -210.863)" fill="#6e7989"/>
        <g id="Group_41574" data-name="Group 41574" transform="translate(98.181 152.181)" opacity="0.2">
          <g id="Group_41573" data-name="Group 41573">
            <g id="Group_41572" data-name="Group 41572" clip-path="url(#clip-path-14)">
              <path id="Path_9478" data-name="Path 9478" d="M234.966,411.874h1.817V367.107a3.907,3.907,0,0,0-2.21-3.517,3.893,3.893,0,0,1,.393,1.7Z" transform="translate(-234.573 -363.59)" fill="#001627"/>
            </g>
          </g>
        </g>
        <path id="Path_9479" data-name="Path 9479" d="M381.412,12.166H348.679a4.264,4.264,0,0,0-4.264,4.264V36.519a4.264,4.264,0,0,0,4.264,4.264h14.7l-2.345,8.651h2.345l9.353-8.651h8.677a4.264,4.264,0,0,0,4.264-4.264V16.43a4.264,4.264,0,0,0-4.264-4.264" transform="translate(-200.26 -7.074)" fill="#a9acd8"/>
        <path id="Path_9480" data-name="Path 9480" d="M375.808,12.166H343.075a4.264,4.264,0,0,0-4.264,4.264V36.519a4.264,4.264,0,0,0,4.264,4.264h14.7v8.651l9.353-8.651h8.677a4.264,4.264,0,0,0,4.264-4.264V16.43a4.264,4.264,0,0,0-4.264-4.264" transform="translate(-197.001 -7.074)" fill="#fff"/>
        <path id="Path_9481" data-name="Path 9481" d="M359.589,37.077a1.6,1.6,0,0,0-1.4.735,3.551,3.551,0,0,0-.5,2.028q0,2.686,2.044,2.687a4.181,4.181,0,0,0,1.2-.172,11.927,11.927,0,0,0,1.165-.414v2.127a6.451,6.451,0,0,1-2.636.516,4.17,4.17,0,0,1-3.231-1.223,5.041,5.041,0,0,1-1.124-3.533,5.636,5.636,0,0,1,.545-2.54,3.894,3.894,0,0,1,1.566-1.684,4.728,4.728,0,0,1,2.4-.589,6.622,6.622,0,0,1,2.884.655l-.77,1.98a8.633,8.633,0,0,0-1.031-.407,3.6,3.6,0,0,0-1.108-.166" transform="translate(-206.473 -20.359)" fill="#888cf0"/>
        <path id="Path_9482" data-name="Path 9482" d="M380.193,44.641l-1.9-6.7h-.057q.134,1.713.134,2.661v4.043h-2.228V35.333h3.349l1.942,6.608h.051l1.9-6.608h3.355v9.308h-2.311V40.56q0-.318.01-.707t.086-1.9h-.057l-1.878,6.691Z" transform="translate(-218.705 -20.544)" fill="#888cf0"/>
        <path id="Path_9483" data-name="Path 9483" d="M411.74,41.629a2.744,2.744,0,0,1-.439,1.537,2.873,2.873,0,0,1-1.267,1.044,4.7,4.7,0,0,1-1.942.373,7.854,7.854,0,0,1-1.56-.131A5.781,5.781,0,0,1,405.221,44V41.756a7.5,7.5,0,0,0,1.5.576,5.582,5.582,0,0,0,1.426.207,1.383,1.383,0,0,0,.821-.194.6.6,0,0,0,.261-.5.55.55,0,0,0-.105-.334,1.219,1.219,0,0,0-.337-.29q-.233-.147-1.238-.6a5.948,5.948,0,0,1-1.366-.8,2.465,2.465,0,0,1-.675-.891,2.96,2.96,0,0,1-.22-1.191,2.387,2.387,0,0,1,.936-2.005,4.125,4.125,0,0,1,2.572-.719,7.216,7.216,0,0,1,2.948.668l-.771,1.942a5.58,5.58,0,0,0-2.253-.6A1.174,1.174,0,0,0,408,37.2a.52.52,0,0,0-.223.427.616.616,0,0,0,.283.491,10.838,10.838,0,0,0,1.537.789,4.25,4.25,0,0,1,1.671,1.162,2.523,2.523,0,0,1,.468,1.563" transform="translate(-235.615 -20.359)" fill="#888cf0"/>
        <path id="Path_9484" data-name="Path 9484" d="M201.643,100.807H172.689a3.772,3.772,0,0,0-3.772,3.772v17.769a3.769,3.769,0,0,0,3.532,3.76l-2.075,7.076h2.075l7.637-7.064h21.557a3.772,3.772,0,0,0,3.772-3.772V104.579a3.772,3.772,0,0,0-3.772-3.772" transform="translate(-98.217 -58.614)" fill="#a9acd8"/>
        <path id="Path_9485" data-name="Path 9485" d="M196.686,100.807H167.732a3.772,3.772,0,0,0-3.772,3.772v17.769a3.769,3.769,0,0,0,3.532,3.76v7.076l7.636-7.064h21.557a3.772,3.772,0,0,0,3.772-3.772V104.579a3.772,3.772,0,0,0-3.772-3.772" transform="translate(-95.334 -58.614)" fill="#fff"/>
        <path id="Path_9486" data-name="Path 9486" d="M182.742,117.549a1.981,1.981,0,0,0-1.73.909,4.386,4.386,0,0,0-.622,2.505q0,3.319,2.525,3.32a5.179,5.179,0,0,0,1.479-.213,14.744,14.744,0,0,0,1.439-.511v2.627a7.963,7.963,0,0,1-3.256.637,5.15,5.15,0,0,1-3.992-1.511,6.229,6.229,0,0,1-1.388-4.365,6.967,6.967,0,0,1,.673-3.138,4.808,4.808,0,0,1,1.935-2.08,5.844,5.844,0,0,1,2.969-.728,8.176,8.176,0,0,1,3.563.81l-.952,2.446a10.646,10.646,0,0,0-1.274-.5,4.451,4.451,0,0,0-1.369-.2" transform="translate(-103.031 -66.867)" fill="#888cf0"/>
        <path id="Path_9487" data-name="Path 9487" d="M204.5,124.881h-2.926v-2.108H204.5v-2.887h2.116v2.887h2.926v2.108h-2.926v2.839H204.5Z" transform="translate(-117.203 -69.708)" fill="#888cf0"/>
        <path id="Path_9488" data-name="Path 9488" d="M226.278,124.881h-2.926v-2.108h2.926v-2.887h2.116v2.887h2.926v2.108h-2.926v2.839h-2.116Z" transform="translate(-129.868 -69.708)" fill="#888cf0"/>
        <path id="Path_9489" data-name="Path 9489" d="M270.778,61.764a11.606,11.606,0,1,0,11.606-11.606,11.605,11.605,0,0,0-11.606,11.606" transform="translate(-157.444 -29.164)" fill="#7178c6"/>
        <path id="Path_9490" data-name="Path 9490" d="M264.856,61.764a11.606,11.606,0,1,0,11.606-11.606,11.605,11.605,0,0,0-11.606,11.606" transform="translate(-154 -29.164)" fill="#888cf0"/>
        <path id="Path_9491" data-name="Path 9491" d="M274.108,70.267a1.316,1.316,0,0,0-1.149.6,2.911,2.911,0,0,0-.413,1.664q0,2.2,1.678,2.2a3.447,3.447,0,0,0,.982-.141,9.922,9.922,0,0,0,.956-.34V76a5.293,5.293,0,0,1-2.163.423,3.42,3.42,0,0,1-2.652-1,4.138,4.138,0,0,1-.922-2.9,4.624,4.624,0,0,1,.447-2.085,3.2,3.2,0,0,1,1.285-1.382,3.882,3.882,0,0,1,1.973-.483,5.436,5.436,0,0,1,2.367.538l-.632,1.625a7.1,7.1,0,0,0-.846-.334,2.95,2.95,0,0,0-.909-.136" transform="translate(-157.238 -39.872)" fill="#fff"/>
        <path id="Path_9492" data-name="Path 9492" d="M292.189,74a2.255,2.255,0,0,1-.36,1.262,2.364,2.364,0,0,1-1.04.857,3.853,3.853,0,0,1-1.593.306,6.431,6.431,0,0,1-1.28-.107,4.746,4.746,0,0,1-1.077-.373V74.107a6.142,6.142,0,0,0,1.228.473,4.564,4.564,0,0,0,1.17.17,1.136,1.136,0,0,0,.674-.159.49.49,0,0,0,.214-.41.452.452,0,0,0-.086-.274,1,1,0,0,0-.277-.238q-.19-.12-1.016-.491a4.884,4.884,0,0,1-1.12-.658,2.026,2.026,0,0,1-.554-.732,2.429,2.429,0,0,1-.18-.977,1.958,1.958,0,0,1,.768-1.646,3.386,3.386,0,0,1,2.111-.59,5.929,5.929,0,0,1,2.419.548l-.632,1.594a4.584,4.584,0,0,0-1.85-.491.963.963,0,0,0-.585.141.426.426,0,0,0-.183.35.5.5,0,0,0,.233.4,8.84,8.84,0,0,0,1.262.648,3.493,3.493,0,0,1,1.371.953A2.071,2.071,0,0,1,292.189,74" transform="translate(-166.782 -39.872)" fill="#fff"/>
        <path id="Path_9493" data-name="Path 9493" d="M306.945,74a2.254,2.254,0,0,1-.36,1.262,2.364,2.364,0,0,1-1.04.857,3.855,3.855,0,0,1-1.594.306,6.434,6.434,0,0,1-1.28-.107,4.753,4.753,0,0,1-1.076-.373V74.107a6.141,6.141,0,0,0,1.228.473,4.564,4.564,0,0,0,1.17.17,1.136,1.136,0,0,0,.674-.159.49.49,0,0,0,.214-.41.452.452,0,0,0-.086-.274,1,1,0,0,0-.277-.238q-.191-.12-1.017-.491a4.884,4.884,0,0,1-1.12-.658,2.025,2.025,0,0,1-.554-.732,2.429,2.429,0,0,1-.18-.977,1.96,1.96,0,0,1,.768-1.646,3.386,3.386,0,0,1,2.111-.59,5.929,5.929,0,0,1,2.419.548l-.632,1.594a4.587,4.587,0,0,0-1.85-.491.964.964,0,0,0-.585.141.426.426,0,0,0-.183.35.506.506,0,0,0,.233.4,8.846,8.846,0,0,0,1.262.648,3.5,3.5,0,0,1,1.372.953A2.073,2.073,0,0,1,306.945,74" transform="translate(-175.362 -39.872)" fill="#fff"/>
        <path id="Path_9494" data-name="Path 9494" d="M83.22,111.793a15.627,15.627,0,1,0-9.649,14.445l1.907,4.5H78.07V123.39a15.592,15.592,0,0,0,5.15-11.6" transform="translate(-30.208 -55.912)" fill="#7178c6"/>
        <path id="Path_9495" data-name="Path 9495" d="M77.026,111.793a15.627,15.627,0,1,0-9.649,14.445l4.5,4.5V123.39a15.592,15.592,0,0,0,5.15-11.6" transform="translate(-26.607 -55.912)" fill="#888cf0"/>
        <path id="Path_9496" data-name="Path 9496" d="M67.488,128.957a8.2,8.2,0,0,1-1.737-.178v-2.6q.271.051.576.114a3.247,3.247,0,0,0,.661.064,1.354,1.354,0,0,0,1.186-.5,3.062,3.062,0,0,0,.356-1.711V112.685h3.363v11.173a5.731,5.731,0,0,1-1.1,3.808,4.1,4.1,0,0,1-3.3,1.292" transform="translate(-38.231 -65.521)" fill="#fff"/>
        <path id="Path_9497" data-name="Path 9497" d="M93.578,125.757a2.729,2.729,0,0,1-1.051,2.33,4.959,4.959,0,0,1-3.015.788,13.11,13.11,0,0,1-1.855-.114,7.9,7.9,0,0,1-1.609-.419v-2.652a9.966,9.966,0,0,0,1.69.559,7.114,7.114,0,0,0,1.639.22q1.075,0,1.076-.491a.556.556,0,0,0-.3-.453,13.65,13.65,0,0,0-1.75-.775,4.36,4.36,0,0,1-1.847-1.233,2.809,2.809,0,0,1-.525-1.749,2.422,2.422,0,0,1,1.034-2.084,4.935,4.935,0,0,1,2.922-.745,7.359,7.359,0,0,1,1.783.208,10.584,10.584,0,0,1,1.732.606l-.9,2.135a10.082,10.082,0,0,0-1.4-.5,4.644,4.644,0,0,0-1.2-.208q-.813,0-.813.4a.5.5,0,0,0,.284.419,15.244,15.244,0,0,0,1.639.707,6.3,6.3,0,0,1,1.5.813,2.434,2.434,0,0,1,.728.936,3.289,3.289,0,0,1,.233,1.309" transform="translate(-50.022 -69.156)" fill="#fff"/>
        <path id="Path_9498" data-name="Path 9498" d="M124.463,0H101.407a3.269,3.269,0,0,0-3.269,3.269V26.325a3.269,3.269,0,0,0,3.269,3.269h13.556l5.3,6.4H122.4v-6.4h2.063a3.269,3.269,0,0,0,3.269-3.269V3.269A3.269,3.269,0,0,0,124.463,0" transform="translate(-57.062)" fill="#2e2e59"/>
        <path id="Path_9499" data-name="Path 9499" d="M119.367,0H96.311a3.269,3.269,0,0,0-3.269,3.269V26.325a3.269,3.269,0,0,0,3.269,3.269h13.556l7.436,6.4v-6.4h2.063a3.269,3.269,0,0,0,3.269-3.269V3.269A3.269,3.269,0,0,0,119.367,0" transform="translate(-54.099)" fill="#414074"/>
        <path id="Path_9500" data-name="Path 9500" d="M110.381,32.458l-7.651-3.4v-1.3l7.651-3.83v2.248l-4.692,2.142,4.692,1.907Z" transform="translate(-59.732 -13.914)" fill="#fff"/>
        <path id="Path_9501" data-name="Path 9501" d="M129.308,20.711l-4.124,11.375h-2.618l4.124-11.375Z" transform="translate(-71.265 -12.042)" fill="#fff"/>
        <path id="Path_9502" data-name="Path 9502" d="M140.049,30.226l4.692-1.907-4.692-2.142V23.929l7.651,3.829v1.3l-7.651,3.4Z" transform="translate(-81.431 -13.914)" fill="#fff"/>
        <path id="Path_9503" data-name="Path 9503" d="M408.206,160.147H387.88A2.882,2.882,0,0,0,385,163.03V175.2a2.882,2.882,0,0,0,2.883,2.882l-1.239,5.728h2.175l6.192-5.728h13.2a2.883,2.883,0,0,0,2.883-2.882V163.03a2.883,2.883,0,0,0-2.883-2.883" transform="translate(-223.856 -93.117)" fill="#2e2e59"/>
        <path id="Path_9504" data-name="Path 9504" d="M403.01,160.147H382.684a2.882,2.882,0,0,0-2.883,2.883V175.2a2.882,2.882,0,0,0,2.883,2.882h.935v5.728l6.192-5.728h13.2a2.883,2.883,0,0,0,2.883-2.882V163.03a2.883,2.883,0,0,0-2.883-2.883" transform="translate(-220.835 -93.117)" fill="#414074"/>
        <path id="Path_9505" data-name="Path 9505" d="M394.038,181.581h-.907V179.09h-2.549v2.492h-.9v-5.528h.9v2.261h2.549v-2.261h.907Z" transform="translate(-226.578 -102.366)" fill="#fff"/>
        <path id="Path_9506" data-name="Path 9506" d="M404.621,181.581h-.9v-4.753h-1.626v-.775h4.156v.775h-1.626Z" transform="translate(-233.796 -102.366)" fill="#fff"/>
        <path id="Path_9507" data-name="Path 9507" d="M416.433,181.581l-1.6-4.617h-.03q.064,1.029.064,1.929v2.688h-.821v-5.528h1.274l1.535,4.4h.023l1.58-4.4h1.278v5.528h-.87v-2.734q0-.412.021-1.074t.036-.8h-.03l-1.66,4.609Z" transform="translate(-240.745 -102.366)" fill="#fff"/>
        <path id="Path_9508" data-name="Path 9508" d="M431.118,181.581v-5.528h.9v4.753h2.341v.775Z" transform="translate(-250.673 -102.366)" fill="#fff"/>
        <path id="Path_9509" data-name="Path 9509" d="M67.431,201.193a7.8,7.8,0,1,0,7.8-7.8,7.8,7.8,0,0,0-7.8,7.8" transform="translate(-39.208 -112.448)" fill="#d8a159"/>
        <path id="Path_9510" data-name="Path 9510" d="M63.944,201.193a7.8,7.8,0,1,0,7.8-7.8,7.8,7.8,0,0,0-7.8,7.8" transform="translate(-37.18 -112.448)" fill="#ffc979"/>
        <path id="Path_9511" data-name="Path 9511" d="M77.073,204.871a8.343,8.343,0,0,1,.417-2.671,6.639,6.639,0,0,1,1.2-2.181h1.1a7.7,7.7,0,0,0-1.147,2.27,8.46,8.46,0,0,0-.4,2.572,8.232,8.232,0,0,0,.4,2.548,7.7,7.7,0,0,0,1.136,2.23H78.694a6.342,6.342,0,0,1-1.206-2.138,8.127,8.127,0,0,1-.415-2.629" transform="translate(-44.814 -116.3)" fill="#414074"/>
        <path id="Path_9512" data-name="Path 9512" d="M86.08,205.1a.712.712,0,0,1,.8-.813.784.784,0,0,1,.6.216.992.992,0,0,1-.008,1.2.9.9,0,0,1-1.187,0,.861.861,0,0,1-.2-.609m0,4.6a.829.829,0,0,1,.2-.6.935.935,0,0,1,1.19.008.836.836,0,0,1,.2.6.857.857,0,0,1-.208.606.9.9,0,0,1-1.187,0,.86.86,0,0,1-.2-.609" transform="translate(-50.051 -118.785)" fill="#414074"/>
        <path id="Path_9513" data-name="Path 9513" d="M328.556,126.267A12.44,12.44,0,1,0,314.529,138.6l1.671,5.312h1.941l1.674-5.767a12.446,12.446,0,0,0,8.741-11.881" transform="translate(-176.572 -66.184)" fill="#d8a159"/>
        <path id="Path_9514" data-name="Path 9514" d="M323.92,126.267A12.44,12.44,0,1,0,309.893,138.6l3.612,5.312,1.674-5.767a12.446,12.446,0,0,0,8.741-11.881" transform="translate(-173.876 -66.184)" fill="#ffc979"/>
        <path id="Path_9515" data-name="Path 9515" d="M314.645,136.771a2.188,2.188,0,0,1-.645,1.69,2.6,2.6,0,0,1-1.833.6h-.5v2.166h-1.764V134.7h2.259a2.76,2.76,0,0,1,1.858.54,1.927,1.927,0,0,1,.621,1.536m-2.974.848h.321a.878.878,0,0,0,.632-.224.81.81,0,0,0,.234-.616q0-.66-.732-.661h-.455Z" transform="translate(-180.195 -78.318)" fill="#414074"/>
        <path id="Path_9516" data-name="Path 9516" d="M329.307,141.223h-1.773v-2.662h-2.05v2.662h-1.773V134.7h1.773v2.42h2.05V134.7h1.773Z" transform="translate(-188.222 -78.318)" fill="#414074"/>
        <path id="Path_9517" data-name="Path 9517" d="M345.189,136.771a2.188,2.188,0,0,1-.645,1.69,2.6,2.6,0,0,1-1.833.6h-.5v2.166h-1.764V134.7h2.259a2.76,2.76,0,0,1,1.858.54,1.927,1.927,0,0,1,.621,1.536m-2.974.848h.321a.878.878,0,0,0,.632-.224.81.81,0,0,0,.234-.616q0-.66-.732-.661h-.455Z" transform="translate(-197.955 -78.318)" fill="#414074"/>
        <path id="Path_9518" data-name="Path 9518" d="M206.272,26.708H192.143a2,2,0,0,0-2,2V42.841a2,2,0,0,0,2,2H199.2l3.857,5.123h2.039V44.845h1.178a2,2,0,0,0,2-2V28.712a2,2,0,0,0-2-2" transform="translate(-110.556 -15.529)" fill="#d8a159"/>
        <path id="Path_9519" data-name="Path 9519" d="M201.4,26.708H187.272a2,2,0,0,0-2,2V42.841a2,2,0,0,0,2,2h7.056l5.9,5.123V44.845H201.4a2,2,0,0,0,2-2V28.712a2,2,0,0,0-2-2" transform="translate(-107.724 -15.529)" fill="#ffc979"/>
        <path id="Path_9520" data-name="Path 9520" d="M215.5,55.437a1.08,1.08,0,1,1-1.527,1.527l-3.006-3.006a1.08,1.08,0,1,1,1.527-1.527Z" transform="translate(-122.482 -30.302)" fill="#414074"/>
        <path id="Path_9521" data-name="Path 9521" d="M198.979,40.443a4.223,4.223,0,1,1,0-5.973,4.229,4.229,0,0,1,0,5.973m-5.3-5.3a3.271,3.271,0,1,0,4.625,0,3.274,3.274,0,0,0-4.625,0" transform="translate(-111.505 -19.325)" fill="#414074"/>
        <rect id="Rectangle_1438" data-name="Rectangle 1438" width="0.953" height="4.632" transform="translate(86.8 21.118) rotate(-45)" fill="#414074"/>
      </g>
    </g>
  </g>
</svg>
