<svg xmlns="http://www.w3.org/2000/svg" xmlns:xlink="http://www.w3.org/1999/xlink" width="78.773" height="71.238" viewBox="0 0 78.773 71.238">
  <defs>
    <clipPath id="clip-path">
      <rect id="Rectangle_844" data-name="Rectangle 844" width="51.944" height="59.98" fill="#1fad95"/>
    </clipPath>
    <clipPath id="clip-path-2">
      <rect id="Rectangle_845" data-name="Rectangle 845" width="78.773" height="9.258" fill="#1fad95"/>
    </clipPath>
  </defs>
  <g id="Group_40510" data-name="Group 40510" transform="translate(-67.559 -16.45)">
    <g id="Group_40508" data-name="Group 40508" transform="translate(80.973 16.455)">
      <path id="Path_8760" data-name="Path 8760" d="M557.773-.005l-3,1.733,25.974,15V33.773l3-1.732V14.99l-12.986-7.5Z" transform="translate(-531.801)" fill="#1fad95"/>
      <g id="Group_40507" data-name="Group 40507" transform="translate(0 -0.005)">
        <g id="Group_40506" data-name="Group 40506" transform="translate(0 0)" clip-path="url(#clip-path)">
          <path id="Path_8761" data-name="Path 8761" d="M831.884,490.086V470.762h0l-.839-.485-2.723-1.572-3,1.734,3.568,2.059v11.08a2.156,2.156,0,0,1,0,3.792V496.6l14.2-8.2v-3.469l-11.2,6.469Z" transform="translate(-791.144 -449.298)" fill="#1fad95"/>
          <path id="Path_8762" data-name="Path 8762" d="M14.768,156.234l-1.781,1.028L0,164.76V194.75l3,1.734v-29.99l14.767-8.526Z" transform="translate(0 -149.765)" fill="#1fad95"/>
          <path id="Path_8763" data-name="Path 8763" d="M295.047,551.647v-9.884l-3.559-2.054-3,1.734.2.113,3.366,1.944v20.642l-6.672,3.852-14.767-8.526v3.477l14.767,8.517,9.671-5.583V555.43a2.156,2.156,0,0,1,0-3.783" transform="translate(-259.404 -517.362)" fill="#1fad95"/>
          <path id="Path_8764" data-name="Path 8764" d="M270.609,1009.163v3.46l1.782,1.029,12.986,7.5,12.986-7.5,12.986-7.5v-3.468c-8.415,4.858-17.671,10.206-25.973,14.994Z" transform="translate(-259.404 -961.17)" fill="#1fad95"/>
          <path id="Path_8765" data-name="Path 8765" d="M143.877,258.99l3.563-2.057v-3.468l-1.476.852-2.087,1.2-2.087-1.2-15.513-8.957L126,245.2v-7.7l14.767-8.526-3-1.734L123,235.762v11.173l9.042,5.22a2.164,2.164,0,0,1,3.3,1.854c0,.016,0,.031,0,.047Z" transform="translate(-117.905 -217.828)" fill="#1fad95"/>
          <path id="Path_8766" data-name="Path 8766" d="M141.784,775.546l2.087,1.2,2.087-1.2,1.476-.852v-3.468l-3.563,2.057-9.592-5.538a2.164,2.164,0,0,1-3.3-1.854c0-.016,0-.031,0-.047l-7.994-4.615v16.406l3,1.734V766.43l3.08,1.778,2.087,1.2Z" transform="translate(-117.898 -729.709)" fill="#1fad95"/>
          <path id="Path_8767" data-name="Path 8767" d="M288.035,79.228l-4.909,2.834-12.987,7.5v4.092l3.018,1.743V91.283l9.6-5.541c0-.015,0-.03,0-.045a2.163,2.163,0,0,1,3.3-1.855l7.992-4.614-14.206-8.2-3,1.733,8.1,4.674Z" transform="translate(-258.954 -68.085)" fill="#1fad95"/>
          <path id="Path_8768" data-name="Path 8768" d="M424.249,320.931V303.877l-9.671-5.584-9.034,5.216c0,.015,0,.029,0,.044a2.164,2.164,0,0,1-3.295,1.855l-8.55,4.936v4.117l2.98,1.72v-4.092l17.9-10.332,6.671,3.852v17.052Z" transform="translate(-377.401 -285.942)" fill="#1fad95"/>
          <path id="Path_8769" data-name="Path 8769" d="M273.158,520.11l0,0-3-1.733-.02.011v4.092l3.018,1.742Z" transform="translate(-258.955 -496.912)" fill="#1fad95"/>
          <path id="Path_8770" data-name="Path 8770" d="M0,362.137v29.99l3,1.734v-29.99H3l-3-1.734Z" transform="translate(0 -347.142)" fill="#1fad95"/>
          <path id="Path_8771" data-name="Path 8771" d="M396.682,591.181l.02-.011-3-1.732v4.115l2.98,1.72Z" transform="translate(-377.4 -565.032)" fill="#1fad95"/>
          <path id="Path_8772" data-name="Path 8772" d="M270.609,1020.373l14.767,8.517h0v-3.468l-14.767-8.526Z" transform="translate(-259.404 -974.79)" fill="#1fad95"/>
          <path id="Path_8773" data-name="Path 8773" d="M141.791,451.7l-15.513-8.957-.276-.159v-7.7l-3-1.734V444.32l9.042,5.22a2.164,2.164,0,0,1,3.3,1.854c0,.016,0,.031,0,.047l8.545,4.933v-3.468Z" transform="translate(-117.905 -415.213)" fill="#1fad95"/>
          <path id="Path_8774" data-name="Path 8774" d="M270.609,1159.1v3.46l1.782,1.029,5.138,2.966,7.848,4.531v-3.468h0Z" transform="translate(-259.404 -1111.106)" fill="#1fad95"/>
          <path id="Path_8775" data-name="Path 8775" d="M134.278,767.744a2.164,2.164,0,0,1-3.3-1.854c0-.016,0-.031,0-.047l-7.994-4.615v16.406l3,1.734V766.43l3.08,1.778,2.087,1.2,10.623,6.133,2.087,1.2v-3.468h0Z" transform="translate(-117.898 -729.709)" fill="#1fad95"/>
          <path id="Path_8776" data-name="Path 8776" d="M1182.026,380.921l3-1.732V362.137l-3,1.733,0,0Z" transform="translate(-1133.081 -347.143)" fill="#1fad95"/>
          <path id="Path_8777" data-name="Path 8777" d="M630.821,860.663l-1.476.852-2.087,1.2v3.469l3.563-2.057Z" transform="translate(-601.286 -825.026)" fill="#1fad95"/>
          <path id="Path_8778" data-name="Path 8778" d="M629.338,1007l1.476-.852v-3.468l-3.563,2.057v3.468h0Z" transform="translate(-601.279 -961.163)" fill="#1fad95"/>
          <path id="Path_8779" data-name="Path 8779" d="M1061.987,433.207l-3,1.732v17.052l3-1.732Z" transform="translate(-1015.139 -415.27)" fill="#1fad95"/>
          <path id="Path_8780" data-name="Path 8780" d="M636.921,603.1a2.156,2.156,0,0,1,0-3.783v-9.879l-3,1.732h0v20.641l-6.672,3.852h0v3.468l9.671-5.583Z" transform="translate(-601.278 -565.032)" fill="#1fad95"/>
          <path id="Path_8781" data-name="Path 8781" d="M914.366,537.7V518.376h0l-3,1.734.005,0v11.08a2.156,2.156,0,0,1,0,3.792v9.232l14.2-8.2v-3.469l-11.2,6.469Z" transform="translate(-873.626 -496.912)" fill="#1fad95"/>
          <path id="Path_8782" data-name="Path 8782" d="M627.25,1021.149h0l25.972-15v-3.467c-8.415,4.858-17.671,10.206-25.973,14.994Z" transform="translate(-601.278 -961.17)" fill="#1fad95"/>
        </g>
      </g>
    </g>
    <g id="Group_40511" data-name="Group 40511" transform="translate(67.559 78.43)">
      <g id="Group_40510-2" data-name="Group 40510" transform="translate(0 0)" clip-path="url(#clip-path-2)">
        <path id="Path_8783" data-name="Path 8783" d="M8.844,0V1.17H2.387A1.073,1.073,0,0,0,1.278,2.28V3.887H7.567V5.057H1.278v4.2H0V2.089A2.011,2.011,0,0,1,.612.612,2.012,2.012,0,0,1,2.089,0Z" transform="translate(0 0)" fill="#1fad95"/>
        <path id="Path_8784" data-name="Path 8784" d="M63.236,19.087a1.666,1.666,0,0,1-.589,1.281,2.049,2.049,0,0,1-1.423.532h-3.03a2.048,2.048,0,0,1-1.423-.532,1.665,1.665,0,0,1-.589-1.281V14.068h1.232v4.759a.883.883,0,0,0,.306.692,1.108,1.108,0,0,0,.765.272h2.441a1.109,1.109,0,0,0,.765-.272A.884.884,0,0,0,62,18.827V14.068h1.24Z" transform="translate(-46.496 -11.643)" fill="#1fad95"/>
        <path id="Path_8785" data-name="Path 8785" d="M102.767,6.434V7.75H105.9V8.859h-3.122V12.5a.967.967,0,0,0,.276.689.908.908,0,0,0,.689.291H105.9v1.1h-2.334a2.063,2.063,0,0,1-1.427-.532,1.661,1.661,0,0,1-.593-1.281q0-3.045-.008-6.335Z" transform="translate(-84.03 -5.325)" fill="#1fad95"/>
        <path id="Path_8786" data-name="Path 8786" d="M138.765,19.087a1.666,1.666,0,0,1-.589,1.281,2.048,2.048,0,0,1-1.423.532h-3.03a2.049,2.049,0,0,1-1.423-.532,1.665,1.665,0,0,1-.589-1.281V14.068h1.232v4.759a.883.883,0,0,0,.306.692,1.108,1.108,0,0,0,.765.272h2.441a1.109,1.109,0,0,0,.765-.272.885.885,0,0,0,.306-.692V14.068h1.239Z" transform="translate(-109.003 -11.643)" fill="#1fad95"/>
        <path id="Path_8787" data-name="Path 8787" d="M182.159,14.067v1.1h-2.792a1.1,1.1,0,0,0-.765.275.9.9,0,0,0-.306.7v4.751h-1.232V15.88a1.666,1.666,0,0,1,.589-1.282,2.05,2.05,0,0,1,1.423-.532Z" transform="translate(-146.537 -11.642)" fill="#1fad95"/>
        <path id="Path_8788" data-name="Path 8788" d="M216.437,14.113a2.05,2.05,0,0,1,1.423.532,1.665,1.665,0,0,1,.589,1.281V18.16h-5.723v1.247a.4.4,0,0,0,.18.337.743.743,0,0,0,.448.13h4.483v1.064h-4.7a1.733,1.733,0,0,1-1.159-.405,1.249,1.249,0,0,1-.478-.987V15.926a1.665,1.665,0,0,1,.589-1.281,2.048,2.048,0,0,1,1.423-.532Zm-3.4,1.385a.883.883,0,0,0-.31.689v.872h4.491v-.872a.914.914,0,0,0-.31-.692,1.1,1.1,0,0,0-.762-.272H213.8a1.115,1.115,0,0,0-.769.276" transform="translate(-175.038 -11.68)" fill="#1fad95"/>
        <path id="Path_8789" data-name="Path 8789" d="M287.269,0V1.14h-3.788V9.258H282.2V1.14h-3.779V0Z" transform="translate(-230.423 0)" fill="#1fad95"/>
        <path id="Path_8790" data-name="Path 8790" d="M334.658,14.113a2.049,2.049,0,0,1,1.423.532,1.666,1.666,0,0,1,.589,1.281V18.16h-5.723v1.247a.4.4,0,0,0,.18.337.743.743,0,0,0,.448.13h4.483v1.064h-4.7a1.732,1.732,0,0,1-1.159-.405,1.248,1.248,0,0,1-.478-.987V15.926a1.666,1.666,0,0,1,.589-1.281,2.049,2.049,0,0,1,1.423-.532Zm-3.4,1.385a.885.885,0,0,0-.31.689v.872h4.492v-.872a.917.917,0,0,0-.31-.692,1.1,1.1,0,0,0-.762-.272h-2.341a1.116,1.116,0,0,0-.769.276" transform="translate(-272.878 -11.68)" fill="#1fad95"/>
        <path id="Path_8791" data-name="Path 8791" d="M380.8,14.067v1.117h-4.047a1.193,1.193,0,0,0-.773.283.863.863,0,0,0-.306.681v2.678a.887.887,0,0,0,.306.689,1.111,1.111,0,0,0,.773.275H380.8V20.9h-4.331a2.063,2.063,0,0,1-1.427-.532,1.662,1.662,0,0,1-.593-1.281V15.88a1.663,1.663,0,0,1,.593-1.282,2.064,2.064,0,0,1,1.427-.532Z" transform="translate(-309.896 -11.642)" fill="#1fad95"/>
        <path id="Path_8792" data-name="Path 8792" d="M417.845,0V2.433h3.687a2.075,2.075,0,0,1,1.435.532,1.663,1.663,0,0,1,.593,1.282V9.258h-1.232V4.506a.954.954,0,0,0-.276-.685.914.914,0,0,0-.688-.287q-2.885,0-3.52.008V9.258h-1.232V0Z" transform="translate(-344.786 0)" fill="#1fad95"/>
      </g>
    </g>
  </g>
</svg>
