<svg id="Group_41537" data-name="Group 41537" xmlns="http://www.w3.org/2000/svg" xmlns:xlink="http://www.w3.org/1999/xlink" width="229.432" height="222" viewBox="0 0 229.432 222">
  <defs>
    <clipPath id="clip-path">
      <rect id="Rectangle_1329" data-name="Rectangle 1329" width="229.432" height="222" fill="none"/>
    </clipPath>
    <clipPath id="clip-path-2">
      <rect id="Rectangle_1262" data-name="Rectangle 1262" width="229.432" height="222.001" fill="none"/>
    </clipPath>
    <clipPath id="clip-path-3">
      <rect id="Rectangle_1261" data-name="Rectangle 1261" width="72.166" height="40.875" fill="none"/>
    </clipPath>
    <clipPath id="clip-path-4">
      <path id="Path_9355" data-name="Path 9355" d="M306.238,219.343a15.908,15.908,0,0,0,2.418,1.734l.712-1.233a14.365,14.365,0,0,1-2.2-1.58Zm-3-3.236a21.848,21.848,0,0,0,1.92,2.226l1.011-1a20.451,20.451,0,0,1-1.795-2.082Zm-2.307-3.741a19.841,19.841,0,0,0,1.462,2.543l1.186-.787a20.367,20.367,0,0,1-1.374-2.39Zm-1.568-4.113a21.368,21.368,0,0,0,.957,2.78l1.311-.555a18.7,18.7,0,0,1-.894-2.6Zm-.6-4.3v0Zm.033-.005.2,2.839,1.42-.1-.2-2.839Zm-.047-4.365.009,2.846,1.423,0-.009-2.846Zm-.014-4.27.009,2.846,1.423,0-.009-2.847Zm-.014-4.27.009,2.847,1.423,0-.009-2.847Zm-.013-4.27.009,2.847,1.423,0-.009-2.847Zm-.014-4.27.009,2.847,1.423,0-.009-2.847Zm-.014-4.27.009,2.847,1.423,0-.009-2.847Zm-.014-4.27.009,2.847,1.423,0-.009-2.847Zm-.014-4.27.009,2.847,1.423,0-.009-2.847Zm-.014-4.27.009,2.847,1.423,0-.009-2.847Zm-.014-4.27.009,2.847,1.423,0-.009-2.847Zm-.014-4.27.009,2.847,1.423,0-.009-2.847Zm-.014-4.27.009,2.847,1.423,0-.009-2.847Zm33.724-2.194.133.077.708-1.235-.133-.077Zm-33.738-2.076.009,2.847,1.423,0-.009-2.847Zm30.034-.049,2.469,1.416.708-1.235-2.469-1.416Zm-3.7-2.124,2.469,1.416.708-1.235-2.469-1.416Zm-26.344-2.1.009,2.847,1.423,0L300,144.066Zm22.64-.028,2.469,1.416.708-1.235-2.469-1.417Zm-3.7-2.124,2.469,1.416.708-1.235-2.469-1.416Zm-18.945-.308,0,1.037,1.423,0,0-1.033a10.829,10.829,0,0,1,.136-1.687l-1.4-.233a12.255,12.255,0,0,0-.155,1.92m15.241-1.816,2.469,1.416.708-1.235-2.469-1.416Zm-3.7-2.124,2.469,1.416.708-1.235-2.469-1.416Zm-11,.525,1.344.467.051-.141a4.94,4.94,0,0,1,1.269-1.943l-.959-1.052a6.438,6.438,0,0,0-1.706,2.669m7.4-2.462,2.469,1.416.708-1.235L307.2,134.5Zm-4.328-1.108.6,1.293a4.609,4.609,0,0,1,2.407-.342l.157-1.415-.034,0q-.36-.036-.716-.037a5.754,5.754,0,0,0-2.409.5" transform="translate(-298.564 -134.121)" fill="none"/>
    </clipPath>
    <linearGradient id="linear-gradient" x1="-0.193" y1="2.446" x2="-0.191" y2="2.446" gradientUnits="objectBoundingBox">
      <stop offset="0" stop-color="#6d6afe"/>
      <stop offset="1" stop-color="#3fb0f7"/>
    </linearGradient>
    <clipPath id="clip-path-6">
      <path id="Path_9357" data-name="Path 9357" d="M340.909,400.161l.077,62.548a5.931,5.931,0,0,0,2.691,4.661c15.8,9.062,31.569,18.444,47.37,27.507,1.49.86,2.7.168,2.709-1.543l-.078-62.549a5.936,5.936,0,0,0-2.691-4.661c-15.8-9.064-31.57-18.445-47.37-27.507a2.456,2.456,0,0,0-1.211-.37c-.885,0-1.494.7-1.5,1.914" transform="translate(-340.909 -398.247)" fill="none"/>
    </clipPath>
    <linearGradient id="linear-gradient-2" x1="-0.198" y1="1.73" x2="-0.197" y2="1.73" xlink:href="#linear-gradient"/>
    <clipPath id="clip-path-8">
      <rect id="Rectangle_1266" data-name="Rectangle 1266" width="2.495" height="5.267" fill="none"/>
    </clipPath>
    <clipPath id="clip-path-9">
      <rect id="Rectangle_1267" data-name="Rectangle 1267" width="2.431" height="4.886" fill="none"/>
    </clipPath>
    <clipPath id="clip-path-10">
      <rect id="Rectangle_1268" data-name="Rectangle 1268" width="2.551" height="4.69" fill="none"/>
    </clipPath>
    <clipPath id="clip-path-11">
      <rect id="Rectangle_1269" data-name="Rectangle 1269" width="1.464" height="4.459" fill="none"/>
    </clipPath>
    <clipPath id="clip-path-12">
      <rect id="Rectangle_1270" data-name="Rectangle 1270" width="3.333" height="5.613" fill="none"/>
    </clipPath>
    <clipPath id="clip-path-13">
      <rect id="Rectangle_1271" data-name="Rectangle 1271" width="0.625" height="5.965" fill="none"/>
    </clipPath>
    <clipPath id="clip-path-14">
      <rect id="Rectangle_1272" data-name="Rectangle 1272" width="3.344" height="5.624" fill="none"/>
    </clipPath>
    <clipPath id="clip-path-15">
      <rect id="Rectangle_1273" data-name="Rectangle 1273" width="0.615" height="5.959" fill="none"/>
    </clipPath>
    <clipPath id="clip-path-16">
      <rect id="Rectangle_1274" data-name="Rectangle 1274" width="3.344" height="5.613" fill="none"/>
    </clipPath>
    <clipPath id="clip-path-17">
      <rect id="Rectangle_1275" data-name="Rectangle 1275" width="0.615" height="5.957" fill="none"/>
    </clipPath>
    <clipPath id="clip-path-18">
      <rect id="Rectangle_1276" data-name="Rectangle 1276" width="3.333" height="5.626" fill="none"/>
    </clipPath>
    <clipPath id="clip-path-19">
      <rect id="Rectangle_1277" data-name="Rectangle 1277" width="3.334" height="5.626" fill="none"/>
    </clipPath>
    <clipPath id="clip-path-20">
      <rect id="Rectangle_1278" data-name="Rectangle 1278" width="0.626" height="5.977" fill="none"/>
    </clipPath>
    <clipPath id="clip-path-21">
      <rect id="Rectangle_1280" data-name="Rectangle 1280" width="12.625" height="74.509" fill="none"/>
    </clipPath>
    <clipPath id="clip-path-22">
      <path id="Path_9377" data-name="Path 9377" d="M620.39,548.557q4.052,2.348,8.105,4.675a5.938,5.938,0,0,1,2.691,4.661l.078,62.549a1.977,1.977,0,0,1-.669,1.652,4.6,4.6,0,0,1-1.862.945l-.019,0a2.218,2.218,0,0,1-1.493-.344q-4.292-2.462-8.582-4.951V549.037Z" transform="translate(-618.639 -548.557)" fill="none" clip-rule="evenodd"/>
    </clipPath>
    <linearGradient id="linear-gradient-3" x1="-3.876" y1="1.858" x2="-3.869" y2="1.858" gradientUnits="objectBoundingBox">
      <stop offset="0" stop-color="#fd70cb"/>
      <stop offset="1" stop-color="#6e4dfd"/>
    </linearGradient>
    <clipPath id="clip-path-23">
      <path id="Path_9379" data-name="Path 9379" d="M666.709,180.945c-1.478.911-2.39,2.781-2.4,5.414l-.2,118.719c-.015,5.405,3.788,12,8.5,14.719l48.6,27.878c4.7,2.716,8.538.531,8.554-4.874l.2-118.719c.015-5.406-3.794-12-8.5-14.719l-48.6-27.878a7.762,7.762,0,0,0-3.824-1.169,4.384,4.384,0,0,0-2.332.63" transform="translate(-664.109 -180.315)" fill="none"/>
    </clipPath>
    <linearGradient id="linear-gradient-4" x1="-0.352" y1="1.127" x2="-0.351" y2="1.127" xlink:href="#linear-gradient"/>
    <clipPath id="clip-path-25">
      <rect id="Rectangle_1284" data-name="Rectangle 1284" width="9.914" height="51.68" fill="none"/>
    </clipPath>
    <clipPath id="clip-path-26">
      <path id="Path_9382" data-name="Path 9382" d="M665.509,192.171l6.564,3.779a6.437,6.437,0,0,1,2.918,5.055l-.07,40.771c-.005,1.856-1.423,2.607-3.039,1.674l-6.805-3.917Z" transform="translate(-665.077 -192.171)" fill="none" clip-rule="evenodd"/>
    </clipPath>
    <linearGradient id="linear-gradient-5" x1="-9.471" y1="3.695" x2="-9.456" y2="3.695" gradientUnits="objectBoundingBox">
      <stop offset="0" stop-color="#fd90da"/>
      <stop offset="1" stop-color="#8e6dfd"/>
    </linearGradient>
    <clipPath id="clip-path-27">
      <path id="Path_9384" data-name="Path 9384" d="M495.64,110.664l-.063,36.926a5.828,5.828,0,0,0,2.643,4.578L524.9,167.42c1.463.845,2.656.165,2.661-1.516l.063-36.926a5.831,5.831,0,0,0-2.643-4.578L498.3,109.148a2.414,2.414,0,0,0-1.189-.364c-.869,0-1.468.689-1.471,1.88" transform="translate(-495.577 -108.784)" fill="none"/>
    </clipPath>
    <linearGradient id="linear-gradient-6" x1="-2.164" y1="3.412" x2="-2.16" y2="3.412" xlink:href="#linear-gradient-5"/>
    <clipPath id="clip-path-29">
      <path id="Path_9395" data-name="Path 9395" d="M1143.165,1043.1l-.151,10.019a13.938,13.938,0,0,0,6.322,10.95l13.889,7.884c3.5,2.021,6.352.4,6.364-3.626l.151-10.019a13.946,13.946,0,0,0-6.322-10.95l-13.889-7.884a5.776,5.776,0,0,0-2.845-.87c-2.079,0-3.51,1.648-3.518,4.5" transform="translate(-1143.014 -1038.605)" fill="none"/>
    </clipPath>
    <linearGradient id="linear-gradient-7" x1="-3.679" y1="1.686" x2="-3.676" y2="1.686" xlink:href="#linear-gradient-5"/>
    <clipPath id="clip-path-31">
      <rect id="Rectangle_1289" data-name="Rectangle 1289" width="22.999" height="27.884" fill="none"/>
    </clipPath>
    <clipPath id="clip-path-32">
      <rect id="Rectangle_1290" data-name="Rectangle 1290" width="19.709" height="14.826" fill="none"/>
    </clipPath>
    <clipPath id="clip-path-33">
      <rect id="Rectangle_1291" data-name="Rectangle 1291" width="60.47" height="64.633" fill="none"/>
    </clipPath>
    <clipPath id="clip-path-34">
      <rect id="Rectangle_1293" data-name="Rectangle 1293" width="18.14" height="75.447" fill="none"/>
    </clipPath>
    <clipPath id="clip-path-35">
      <path id="Path_9408" data-name="Path 9408" d="M1006.75,463.724l8.762,5.141,2.475-1.7-.01,46.7-.1,22.69-2.56,1.216c-5.444-3.175-7.271-3.9-12.72-7.029a5.9,5.9,0,0,1-2.677-4.635l-.074-59.878c-.006-4.573,3.629-4.736,6.9-2.505" transform="translate(-999.847 -462.325)" fill="none" clip-rule="evenodd"/>
    </clipPath>
    <linearGradient id="linear-gradient-8" x1="-6.514" y1="1.996" x2="-6.507" y2="1.996" xlink:href="#linear-gradient-3"/>
    <clipPath id="clip-path-36">
      <path id="Path_9410" data-name="Path 9410" d="M1023.952,475.236l.07,56.8a5.387,5.387,0,0,0,2.444,4.232c14.346,8.228,28.667,16.748,43.015,24.978,1.353.781,2.456.153,2.46-1.4l-.07-56.8a5.391,5.391,0,0,0-2.443-4.233c-14.349-8.23-28.667-16.749-43.015-24.978a2.232,2.232,0,0,0-1.1-.336c-.8,0-1.357.637-1.36,1.738" transform="translate(-1023.952 -473.498)" fill="none"/>
    </clipPath>
    <linearGradient id="linear-gradient-9" x1="-1.323" y1="2.092" x2="-1.321" y2="2.092" gradientUnits="objectBoundingBox">
      <stop offset="0" stop-color="#1c8ef4"/>
      <stop offset="1" stop-color="#00cfdd"/>
    </linearGradient>
    <clipPath id="clip-path-38">
      <path id="Path_9415" data-name="Path 9415" d="M973.918,291.7l-.209,1.408a6.234,6.234,0,0,0,3.162-.289l-.507-1.33a4.829,4.829,0,0,1-2.446.211m-2.386.78c.219.092.443.177.675.258l.452-1.349a4.535,4.535,0,0,1-.626-.244.381.381,0,0,0-.08-.009c-.505,0-.878,1.043-.421,1.345M977.4,290.9l.9,1.1a6.174,6.174,0,0,0,1.85-2.581l-1.324-.522a4.766,4.766,0,0,1-1.423,2m1.97-5.932a12.78,12.78,0,0,1-.183,2.694l1.4.273a14.116,14.116,0,0,0,.21-2.973Zm-.019-4.27.012,2.847,1.423-.006-.013-2.847Zm-.019-4.27.012,2.846,1.423-.006-.012-2.847Zm-.018-4.27.012,2.847L980.75,275l-.012-2.847Zm-.019-4.27.012,2.847,1.423-.006-.012-2.847Zm-.018-4.27.012,2.847,1.423-.006-.012-2.847Zm-.018-4.27.012,2.847,1.423-.006-.012-2.847Zm-.018-4.27.012,2.847,1.423-.006-.012-2.846Zm-.018-4.27.012,2.847,1.423-.006-.012-2.846Zm-.018-4.27.012,2.847,1.423-.006-.012-2.847Zm-.018-4.27.012,2.846,1.423-.006-.012-2.846Zm0-4.143.012,2.846,1.423-.006-.012-2.846Zm-.755-4.11a16.61,16.61,0,0,1,.6,2.667l1.409-.206a18.854,18.854,0,0,0-.65-2.881Zm-1.6-3.8a21.48,21.48,0,0,1,1.149,2.506l1.327-.514a23.242,23.242,0,0,0-1.223-2.666Zm-2.277-3.448a22.531,22.531,0,0,1,1.589,2.253l1.21-.75a23.942,23.942,0,0,0-1.691-2.4Zm-2.9-2.9a17.911,17.911,0,0,1,2,1.863l1.046-.965a19.074,19.074,0,0,0-2.162-2.015Zm-3.527-2.206c.806.462,1.644.91,2.428,1.415l.769-1.2c-.8-.518-1.665-.98-2.49-1.453Zm-3.7-2.125,2.469,1.417.708-1.235-2.47-1.417Zm-3.7-2.125,2.469,1.416.708-1.235-2.469-1.416Zm-3.7-2.124,2.469,1.416.708-1.235-2.469-1.416Zm-3.7-2.125,2.469,1.417.708-1.235-2.469-1.417Zm-3.7-2.124,2.469,1.416.708-1.235-2.469-1.416Zm-3.7-2.124,2.469,1.416.708-1.235-2.469-1.416Zm-3.7-2.124,2.469,1.416.708-1.235-2.469-1.416Zm-3.7-2.124,2.469,1.416.708-1.235-2.469-1.416Zm-3.7-2.124,2.469,1.416.708-1.235-2.469-1.416Zm-29.27-2.889.009,2.079c-.048,1.256,1.427.973,1.426.511l-.011-2.6Zm25.567.764,2.469,1.416.708-1.235-2.469-1.416Zm-3.7-2.124,2.469,1.416.708-1.235-2.469-1.416Zm-21.869-.063,1.423-.006c0-.9-.046-1.873.027-2.787l-1.419-.111c-.076.955-.035,1.961-.031,2.9m18.165-2.061,2.469,1.416.708-1.235-2.469-1.416Zm-3.7-2.124,2.469,1.416.708-1.235-2.469-1.416Zm-13-2.966a7.452,7.452,0,0,0-1.2,2.74l1.388.314a5.965,5.965,0,0,1,1.026-2.3l0,0-1.13-.865Zm9.3.842,2.469,1.416.708-1.235-2.469-1.416Zm-3.679-1.582c.2.051.4.084.608.141a9.471,9.471,0,0,1,1.856.752l.661-1.26a10.4,10.4,0,0,0-2.87-1.033Zm-3.573-.979c-.168.082-.327.168-.487.266-.106.066-.21.134-.311.207l.836,1.152c.071-.052.147-.1.222-.148a4.179,4.179,0,0,1,2.052-.6l-.055-1.422a5.692,5.692,0,0,0-2.257.542" transform="translate(-905.507 -188.806)" fill="none"/>
    </clipPath>
    <linearGradient id="linear-gradient-10" x1="-0.891" y1="1.601" x2="-0.89" y2="1.601" xlink:href="#linear-gradient"/>
    <clipPath id="clip-path-40">
      <rect id="Rectangle_1298" data-name="Rectangle 1298" width="55.021" height="30.501" fill="none"/>
    </clipPath>
    <clipPath id="clip-path-41">
      <path id="Path_9417" data-name="Path 9417" d="M429.891,878.574c-1.381,2.055-3.275,5.9-3.345,8.8-.137,5.659.308,9.435-1.421,18.9-5.13,17.27-2.15,16.971-4.1,28.406a7.97,7.97,0,0,1-.468,1.136c-.332.363-.746.581-.941.994-1.041,2.214-1.269,4.346-.545,15.707l2.667.057.341-4.013c.33-1.626,1.244-4.007,1.613-5.481.791-3.156.879-4.766,1.35-7.065l.027-.015c2.922-8.909,5.94-17.669,8.367-26.642l8.323-24.14.264-6.473a6.073,6.073,0,0,0-.844-2.632c-4.287,1.263-6.685,2.624-11.291,2.462" transform="translate(-418.653 -876.112)" fill="none"/>
    </clipPath>
    <linearGradient id="linear-gradient-11" x1="-0.885" y1="1.164" x2="-0.882" y2="1.164" gradientUnits="objectBoundingBox">
      <stop offset="0" stop-color="#ff8a78"/>
      <stop offset="1" stop-color="#ffa799"/>
    </linearGradient>
    <clipPath id="clip-path-43">
      <path id="Path_9421" data-name="Path 9421" d="M516.77,906.109a13.281,13.281,0,0,0-1.6,7.708c.748,5.659,3.582,9.779,4.21,19.482-3.053,10.673.117,19.192-.6,30.723,0,.021,0,.042,0,.063-.206,1.715-1.772,3.354-1.963,4.471-.461,2.695,1.491,1.294,3.7,4.758.885-.007,2.834,3.181,5.471,3.349a1.418,1.418,0,0,0,.491-2.471c-.533-.31-1.01-.08-1.448-.462-.858-.759-1.861-6.659-1.8-8.96,2.391-12.691,3.9-24.789,6.287-37.2a48.675,48.675,0,0,0,1.023-14.693c-.154-2.631.119-3.922-.747-6.472a15.444,15.444,0,0,0-1.256-2.632c-4.09,1.263-7.14,2.5-11.771,2.341" transform="translate(-515.086 -903.769)" fill="none"/>
    </clipPath>
    <linearGradient id="linear-gradient-12" x1="-0.69" y1="1.501" x2="-0.688" y2="1.501" gradientUnits="objectBoundingBox">
      <stop offset="0" stop-color="#ffb89e"/>
      <stop offset="0.995" stop-color="#ffa799"/>
      <stop offset="1" stop-color="#ffa799"/>
    </linearGradient>
    <clipPath id="clip-path-44">
      <path id="Path_9422" data-name="Path 9422" d="M453.92,720.883c3.319,7.407,3.562,11.2,1.864,16.827-1.327,2.141-2.912,5.578-2.976,8.232-.137,5.659.308,9.435-1.421,18.9-.8,2.68-1.4,4.937-1.85,6.88,3.494,6.369,14.963,5.8,22.215,2.436.626-3.835,1.285-7.672,2.028-11.541a48.675,48.675,0,0,0,1.023-14.693c-.154-2.631.119-3.922-.747-6.472a13.578,13.578,0,0,1-.8-2c-1.294-2.853-1.472-11.25-1.462-11.324.606-4.447,3.026-6.012,1.724-9.814a21.862,21.862,0,0,0-6.214-4.876,32.276,32.276,0,0,0-10.248-3.617,4.066,4.066,0,0,0-.457-.026c-4.329,0-4.287,7.5-2.676,11.094" transform="translate(-449.536 -709.789)" fill="none"/>
    </clipPath>
    <linearGradient id="linear-gradient-13" x1="-1.256" y1="1.62" x2="-1.253" y2="1.62" gradientUnits="objectBoundingBox">
      <stop offset="0" stop-color="#965cf2"/>
      <stop offset="1" stop-color="#ff8adc"/>
    </linearGradient>
    <clipPath id="clip-path-46">
      <path id="Path_9425" data-name="Path 9425" d="M428.887,714.364a12.162,12.162,0,0,0-2.886,2.89c-.837,1.131-6.644,9.481-6.84,10.4-.015.03-.03.06-.043.091-.63,1.492.006,3.407,2.912,4.024l11.4,1.475c1.62-.407,2.862-3.885,1.223-4.619l-8.167-1.865c2.647-3.369,5.821-7.3,6.656-9.3a2.375,2.375,0,0,0-1.109-3.012,3.32,3.32,0,0,0-1.7-.467,2.8,2.8,0,0,0-1.444.38" transform="translate(-418.896 -713.984)" fill="none"/>
    </clipPath>
    <linearGradient id="linear-gradient-14" x1="-2.301" y1="4.585" x2="-2.295" y2="4.585" xlink:href="#linear-gradient-13"/>
    <clipPath id="clip-path-47">
      <path id="Path_9426" data-name="Path 9426" d="M717.216,737.623c-1.083.571-2.777,1.524-3.918,2.1-1.809.245-4.447,2.505-6.4,3.7.156,1.286.376,2.842,1.7,3.458.785-.614,2.179-.032,3.341-.808,1.31-.875,3.4-2.081,3.572-3.026a3.8,3.8,0,0,0-.392-2.45l.078-.031c.006,0,1.8-1.1,2.47-1.544.593-.392.415-1.479-.163-1.479a.612.612,0,0,0-.284.078" transform="translate(-706.896 -737.545)" fill="none"/>
    </clipPath>
    <linearGradient id="linear-gradient-15" x1="-7.411" y1="8.723" x2="-7.4" y2="8.723" xlink:href="#linear-gradient-12"/>
    <clipPath id="clip-path-48">
      <path id="Path_9427" data-name="Path 9427" d="M557.207,748.55c-.635,1.13-.9,2.319.714,4.489,2.2,2.954,6.227,6.39,7.846,7.9.357.333.919.955,1.548,1.521a2.793,2.793,0,0,0,3.357,1.1,23.454,23.454,0,0,0,2.648-1.921c2.384-1.659,4.04-3.825,6.485-6.257.226-.225.461-.962.687-1.176q.438-.415.875-.795a6.956,6.956,0,0,0-2.184-3.274c-.2.105-.475.267-.818.473-.278.167-.809.16-1.161.38a72.38,72.38,0,0,0-7.085,4.635c-1.218-1.6-2.636-3.211-3.76-4.675-1.006-1.309-1.795-3.2-2.969-4.337A3.474,3.474,0,0,0,561,745.476c-1.495,0-2.809,1.329-3.791,3.074" transform="translate(-556.711 -745.476)" fill="none"/>
    </clipPath>
    <linearGradient id="linear-gradient-16" x1="-2.57" y1="4.004" x2="-2.566" y2="4.004" xlink:href="#linear-gradient-13"/>
    <clipPath id="clip-path-50">
      <rect id="Rectangle_1309" data-name="Rectangle 1309" width="21.75" height="66.716" fill="none"/>
    </clipPath>
    <clipPath id="clip-path-51">
      <path id="Path_9428" data-name="Path 9428" d="M457.053,709.814a3.079,3.079,0,0,0-3.186,1.582c-.027.044-.052.09-.078.135l-.035.064-.058.111-.017.034c-.024.049-.048.1-.071.149l-.024.055-.058.135-.011.027q-.034.083-.066.168l-.017.047-.048.135-.015.045c-.019.057-.037.115-.055.173l-.013.044-.042.146-.012.045c-.017.063-.033.127-.049.191v0c-.015.062-.029.124-.043.186l-.01.048c-.013.058-.025.117-.036.176l0,.023c-.012.063-.023.126-.034.19l-.01.061-.027.174,0,.016-.026.194-.008.07-.017.153-.005.052-.019.206,0,.034-.012.162,0,.074-.009.19,0,.059-.005.174v.033l0,.195v.274q0,.227.013.455l0,.033.01.189,0,.048.016.219v.014l.016.19.005.058.02.2.006.052.022.186,0,.025.029.214.005.038.028.184.007.044.033.2.007.036.033.18.007.038c.026.136.054.27.084.4l.012.054.041.173.006.025.051.2,0,.018q.052.2.11.389l.015.049.044.142.017.052.055.164.016.045.051.143.012.033c.022.058.043.117.066.173l.005.013.06.148.018.043.069.158c3.319,7.407,3.562,11.2,1.864,16.827-1.327,2.141-2.912,5.578-2.976,8.232-.137,5.659.308,9.435-1.421,18.9-.8,2.68-1.4,4.937-1.85,6.88,1.607,2.93,4.9,4.391,8.7,4.788,15.644-17.186-6.431-23.354,1.962-39.115.957-1.8,6.831-4.082,8.3-6.3,3.148-3.693,4.393-7.339-.36-13.217-.789-.976-1.377-1.486-2.435-2.959-1.728.408-4.944-.164-5.329-.869-.134-.246.547-2.4.437-2.668-2.959-1.3-2.015-1.363-3.754-1.559" transform="translate(-449.536 -709.788)" fill="none" clip-rule="evenodd"/>
    </clipPath>
    <linearGradient id="linear-gradient-17" x1="-2.182" y1="1.703" x2="-2.177" y2="1.703" xlink:href="#linear-gradient-13"/>
    <clipPath id="clip-path-52">
      <path id="Path_9429" data-name="Path 9429" d="M497.03,655.021c.6,1.768,2.149,3.024,2.924,4.176a3.627,3.627,0,0,1,.405,1.582h0a17.089,17.089,0,0,1-1.384,3.971c-.371,1.573,5.37,3.271,7.337,2.416l.041-.381c.507-2.346,1.006-4.34,1.357-5.987.914.39,3.16.5,3.358.19-4.706-3.758-10.032-6.755-12.6-6.755a1.362,1.362,0,0,0-1.444.788" transform="translate(-497.03 -654.233)" fill="none"/>
    </clipPath>
    <linearGradient id="linear-gradient-18" x1="-4.096" y1="7.178" x2="-4.087" y2="7.178" xlink:href="#linear-gradient-11"/>
    <clipPath id="clip-path-54">
      <path id="Path_9432" data-name="Path 9432" d="M417.614,586.739c-2.1,3.383-.96,7.636-4.013,10.189-3.84,3.211-6,8.995-4.256,12.276,1.583,2.974,5.445,4.723,4.257,6.6-.982,1.556-3.294,3.116-.544,5.628,1.416,1.293,4.875,4.763,11.935,2.966,6.882-1.752,14.1-7.7,8.305-14.2-6.1-6.84-2.532-8.353.967-13.732,1.851-2.844,3.505-8.465,1.92-10.556-1.674-2.208-3-2.077-4.386-1.946a4.765,4.765,0,0,1-2.755-.323,10.214,10.214,0,0,0-4.447-1.116,8.149,8.149,0,0,0-6.983,4.205" transform="translate(-408.732 -582.534)" fill="none"/>
    </clipPath>
    <linearGradient id="linear-gradient-19" x1="-0.979" y1="3.104" x2="-0.976" y2="3.104" gradientUnits="objectBoundingBox">
      <stop offset="0" stop-color="#5a2d68"/>
      <stop offset="1" stop-color="#22043d"/>
    </linearGradient>
    <clipPath id="clip-path-56">
      <rect id="Rectangle_1315" data-name="Rectangle 1315" width="19.138" height="35.128" fill="none"/>
    </clipPath>
    <clipPath id="clip-path-57">
      <path id="Path_9433" data-name="Path 9433" d="M217.677,35.21c0-.62.441-.871.981-.559,5.722,3.282,11.432,6.679,17.155,9.962a2.15,2.15,0,0,1,.975,1.688l.028,22.652c0,.62-.441.87-.981.559-5.722-3.282-11.434-6.68-17.155-9.962a2.148,2.148,0,0,1-.975-1.688Z" transform="translate(-217.677 -34.517)" fill="none" clip-rule="evenodd"/>
    </clipPath>
    <linearGradient id="linear-gradient-20" x1="-0.582" y1="7.931" x2="-0.578" y2="7.931" xlink:href="#linear-gradient-9"/>
    <clipPath id="clip-path-58">
      <rect id="Rectangle_1317" data-name="Rectangle 1317" width="11.557" height="21.212" fill="none"/>
    </clipPath>
    <clipPath id="clip-path-59">
      <path id="Path_9434" data-name="Path 9434" d="M1456.1,1197.125c0-.374.266-.526.592-.338,3.455,1.982,6.9,4.033,10.359,6.015a1.3,1.3,0,0,1,.588,1.019l.017,13.678c0,.374-.267.526-.593.338-3.455-1.982-6.9-4.034-10.359-6.015a1.3,1.3,0,0,1-.589-1.019Z" transform="translate(-1456.101 -1196.706)" fill="none" clip-rule="evenodd"/>
    </clipPath>
    <linearGradient id="linear-gradient-21" x1="-8.687" y1="2.085" x2="-8.681" y2="2.085" xlink:href="#linear-gradient"/>
    <clipPath id="clip-path-60">
      <rect id="Rectangle_1319" data-name="Rectangle 1319" width="19.139" height="35.128" fill="none"/>
    </clipPath>
    <clipPath id="clip-path-61">
      <path id="Path_9435" data-name="Path 9435" d="M1077.814,161.786c0-.62.441-.871.981-.559,5.722,3.282,11.432,6.679,17.155,9.962a2.148,2.148,0,0,1,.974,1.688l.028,22.652c0,.62-.441.87-.981.559-5.722-3.282-11.434-6.68-17.155-9.962a2.149,2.149,0,0,1-.974-1.688Z" transform="translate(-1077.814 -161.093)" fill="none" clip-rule="evenodd"/>
    </clipPath>
    <linearGradient id="linear-gradient-22" x1="-7.953" y1="5.502" x2="-7.946" y2="5.502" xlink:href="#linear-gradient-5"/>
    <clipPath id="clip-path-63">
      <path id="Path_9436" data-name="Path 9436" d="M985.76.688c0-.62.441-.871.981-.559,5.722,3.282,11.432,6.679,17.155,9.962a2.149,2.149,0,0,1,.974,1.688l.028,22.652c0,.62-.442.87-.981.559-5.722-3.282-11.433-6.68-17.155-9.962a2.149,2.149,0,0,1-.974-1.688ZM987.24,3.3l.024,19.149a1.817,1.817,0,0,0,.824,1.427c4.837,2.774,9.665,5.647,14.5,8.421.456.263.828.051.829-.473l-.024-19.15a1.816,1.816,0,0,0-.824-1.427c-4.838-2.775-9.665-5.647-14.5-8.421-.457-.264-.828-.051-.829.473" transform="translate(-985.76 0.005)" fill="none" clip-rule="evenodd"/>
    </clipPath>
    <linearGradient id="linear-gradient-23" x1="-3.396" y1="6.552" x2="-3.392" y2="6.552" xlink:href="#linear-gradient"/>
    <clipPath id="clip-path-64">
      <rect id="Rectangle_1323" data-name="Rectangle 1323" width="19.138" height="35.129" fill="none"/>
    </clipPath>
    <clipPath id="clip-path-65">
      <path id="Path_9437" data-name="Path 9437" d="M131.377,832.057c0-.62.441-.871.981-.559,5.722,3.282,11.432,6.679,17.155,9.962a2.149,2.149,0,0,1,.974,1.688l.028,22.652c0,.62-.441.87-.981.559-5.722-3.282-11.433-6.68-17.155-9.962a2.149,2.149,0,0,1-.975-1.688Zm1.48,2.609.023,19.149a1.817,1.817,0,0,0,.824,1.427c4.837,2.774,9.665,5.647,14.5,8.421.456.263.828.051.829-.472l-.024-19.15a1.817,1.817,0,0,0-.824-1.427c-4.838-2.775-9.665-5.647-14.5-8.421-.457-.264-.828-.051-.829.473" transform="translate(-131.377 -831.364)" fill="none" clip-rule="evenodd"/>
    </clipPath>
    <linearGradient id="linear-gradient-24" x1="-0.946" y1="2.72" x2="-0.939" y2="2.72" xlink:href="#linear-gradient-5"/>
    <clipPath id="clip-path-66">
      <rect id="Rectangle_1325" data-name="Rectangle 1325" width="12.599" height="18.641" fill="none"/>
    </clipPath>
    <clipPath id="clip-path-67">
      <path id="Path_9438" data-name="Path 9438" d="M4.7,459.632a14.541,14.541,0,0,1-4.5-12.872c.881-4.335,4.324-5.6,7.689-2.831a14.548,14.548,0,0,1,4.5,12.872c-.882,4.337-4.325,5.6-7.689,2.831" transform="translate(0 -442.46)" fill="none" clip-rule="evenodd"/>
    </clipPath>
    <linearGradient id="linear-gradient-25" x1="0.252" y1="6.947" x2="0.258" y2="6.947" xlink:href="#linear-gradient"/>
    <clipPath id="clip-path-68">
      <rect id="Rectangle_1327" data-name="Rectangle 1327" width="18.526" height="27.41" fill="none"/>
    </clipPath>
    <clipPath id="clip-path-69">
      <path id="Path_9439" data-name="Path 9439" d="M1180.944,1318.683c-4.949-4.078-7.907-12.549-6.61-18.927s6.357-8.24,11.306-4.162,7.906,12.553,6.61,18.927-6.36,8.238-11.306,4.162m.542-2.663c3.8,3.136,7.7,1.7,8.7-3.2s-1.28-11.425-5.085-14.561-7.7-1.7-8.7,3.2,1.278,11.423,5.085,14.561" transform="translate(-1174.029 -1293.434)" fill="none" clip-rule="evenodd"/>
    </clipPath>
    <linearGradient id="linear-gradient-26" x1="-4.671" y1="1.018" x2="-4.667" y2="1.018" xlink:href="#linear-gradient-9"/>
  </defs>
  <g id="Group_41536" data-name="Group 41536" clip-path="url(#clip-path)">
    <g id="Group_41375" data-name="Group 41375" transform="translate(0 -0.001)">
      <g id="Group_41374" data-name="Group 41374" clip-path="url(#clip-path-2)">
        <g id="Group_41373" data-name="Group 41373" transform="translate(95.658 179.858)" opacity="0.2">
          <g id="Group_41372" data-name="Group 41372">
            <g id="Group_41371" data-name="Group 41371" clip-path="url(#clip-path-3)">
              <path id="Path_9354" data-name="Path 9354" d="M709.69,1234.769l-55.239-31.55c-2.05-.937-5.063-1.821-7.073-.6l-5.145,3.135c-1.035.63-4.439,2.723-2.162,3.961,6.7,3.642,49.488,28.644,56.288,32.343a9.541,9.541,0,0,0,5.143.788,12.92,12.92,0,0,0,5.57-1.659l2.055-1.267c1.453-.9,2.257-1.875,2.335-2.814.076-.917-.514-1.768-1.772-2.342" transform="translate(-639.302 -1202.025)" fill="#5f7ffb" fill-rule="evenodd"/>
            </g>
          </g>
        </g>
      </g>
    </g>
    <g id="Group_41377" data-name="Group 41377" transform="translate(44.674 20.068)">
      <g id="Group_41376" data-name="Group 41376" clip-path="url(#clip-path-4)">
        <rect id="Rectangle_1263" data-name="Rectangle 1263" width="89.475" height="81.411" transform="translate(-42.447 52.891) rotate(-51.252)" fill="url(#linear-gradient)"/>
      </g>
    </g>
    <g id="Group_41379" data-name="Group 41379" transform="translate(0 -0.001)">
      <g id="Group_41378" data-name="Group 41378" clip-path="url(#clip-path-2)">
        <path id="Path_9356" data-name="Path 9356" d="M346.277,394.379c.518-.274,1.04-.54,1.556-.813a2.1,2.1,0,0,1,1.684.3c15.8,9.062,31.568,18.444,47.37,27.507a5.937,5.937,0,0,1,2.691,4.661l.077,62.549a1.976,1.976,0,0,1-.669,1.652,4.6,4.6,0,0,1-1.862.945,1.124,1.124,0,0,1-.708-.135c-15.8-9.063-31.277-19.25-47.075-28.311a5.933,5.933,0,0,1-2.691-4.661Z" transform="translate(-294.464 -334.616)" fill="#d0e7ff" fill-rule="evenodd"/>
      </g>
    </g>
    <g id="Group_41381" data-name="Group 41381" transform="translate(51.01 59.589)">
      <g id="Group_41380" data-name="Group 41380" clip-path="url(#clip-path-6)">
        <rect id="Rectangle_1265" data-name="Rectangle 1265" width="110.888" height="92.389" transform="translate(-40.375 76.057) rotate(-62.038)" fill="url(#linear-gradient-2)"/>
      </g>
    </g>
    <g id="Group_41427" data-name="Group 41427" transform="translate(0 -0.001)">
      <g id="Group_41426" data-name="Group 41426" clip-path="url(#clip-path-2)">
        <path id="Path_9358" data-name="Path 9358" d="M341.225,613.761l52.748,30.454.008,8.927-52.745-30.488Z" transform="translate(-290.168 -521.924)" fill="#6699fd" fill-rule="evenodd"/>
        <path id="Path_9359" data-name="Path 9359" d="M341.225,762.7l52.748,30.454.008,8.927L341.236,771.6Z" transform="translate(-290.168 -648.582)" fill="#6699fd" fill-rule="evenodd"/>
        <g id="Group_41384" data-name="Group 41384" transform="translate(83.218 99.487)" opacity="0.8">
          <g id="Group_41383" data-name="Group 41383">
            <g id="Group_41382" data-name="Group 41382" clip-path="url(#clip-path-8)">
              <path id="Path_9360" data-name="Path 9360" d="M558.655,667.459a2.138,2.138,0,0,0-1.065-1.912,6.687,6.687,0,0,0-1.427-.66l0,.779,1.055.609c.371.214.528.345.527.673,0,.4-1.167.812-1.545.889l0,.9,2.452,1.416,0-.935-.983-.567c.285-.138.986-.457.988-1.193" transform="translate(-556.16 -664.887)" fill="#fff" fill-rule="evenodd"/>
            </g>
          </g>
        </g>
        <g id="Group_41387" data-name="Group 41387" transform="translate(96.437 107.145)" opacity="0.8">
          <g id="Group_41386" data-name="Group 41386">
            <g id="Group_41385" data-name="Group 41385" clip-path="url(#clip-path-9)">
              <path id="Path_9361" data-name="Path 9361" d="M646.935,718.528v-.2a1.774,1.774,0,0,0-.881-1.51l-.364-.214a4.3,4.3,0,0,0-1.184-.531l0,.786,1.085.627c.249.144.441.255.441.534v.049c0,.246-.115.18-.443.007l-.763-.392,0,.861.763.481c.306.185.434.276.433.521v.049c0,.254-.1.2-.457-.01l-1.026-.592,0,.8a6.744,6.744,0,0,0,1.322.913l.153.088c.563.325.921.162.922-.486v-.163a1.388,1.388,0,0,0-.391-1.054c.286.05.394-.159.4-.561" transform="translate(-644.504 -716.068)" fill="#fff" fill-rule="evenodd"/>
            </g>
          </g>
        </g>
        <g id="Group_41390" data-name="Group 41390" transform="translate(56.84 84.217)" opacity="0.8">
          <g id="Group_41389" data-name="Group 41389">
            <g id="Group_41388" data-name="Group 41388" clip-path="url(#clip-path-10)">
              <path id="Path_9362" data-name="Path 9362" d="M381.507,566.108c0,.286-.108.249-.258.163l-.2-.115a.488.488,0,0,1-.263-.473l0-1.434c0-.066-.006-.315.229-.18l.271.156a.447.447,0,0,1,.22.44Zm.05-2.671-.763-.44c-.591-.342-.914-.134-.916.571l-.005,1.819a1.719,1.719,0,0,0,.9,1.546l.77.445c.556.32.871.11.873-.521l.005-1.876a1.661,1.661,0,0,0-.867-1.543" transform="translate(-379.874 -562.836)" fill="#fff" fill-rule="evenodd"/>
            </g>
          </g>
        </g>
        <g id="Group_41393" data-name="Group 41393" transform="translate(70.547 92.353)" opacity="0.8">
          <g id="Group_41392" data-name="Group 41392">
            <g id="Group_41391" data-name="Group 41391" clip-path="url(#clip-path-11)">
              <path id="Path_9363" data-name="Path 9363" d="M472.046,617.209l-.564.117,0,.663.549.21-.008,2.941.913.527.01-3.941Z" transform="translate(-471.479 -617.209)" fill="#fff" fill-rule="evenodd"/>
            </g>
          </g>
        </g>
        <g id="Group_41396" data-name="Group 41396" transform="translate(65.936 77.589)" opacity="0.8">
          <g id="Group_41395" data-name="Group 41395">
            <g id="Group_41394" data-name="Group 41394" clip-path="url(#clip-path-12)">
              <path id="Path_9364" data-name="Path 9364" d="M443.981,524.153,444,518.54l-3.333.893Z" transform="translate(-440.664 -518.541)" fill="#fff" fill-rule="evenodd"/>
            </g>
          </g>
        </g>
        <g id="Group_41399" data-name="Group 41399" transform="translate(69.863 77.941)" opacity="0.8">
          <g id="Group_41398" data-name="Group 41398">
            <g id="Group_41397" data-name="Group 41397" clip-path="url(#clip-path-13)">
              <path id="Path_9365" data-name="Path 9365" d="M466.923,520.888l-.016,5.612.609.353.015-5.612Z" transform="translate(-466.907 -520.888)" fill="#fff" fill-rule="evenodd"/>
            </g>
          </g>
        </g>
        <g id="Group_41402" data-name="Group 41402" transform="translate(57.271 72.593)" opacity="0.8">
          <g id="Group_41401" data-name="Group 41401">
            <g id="Group_41400" data-name="Group 41400" clip-path="url(#clip-path-14)">
              <path id="Path_9366" data-name="Path 9366" d="M382.753,486.034l3.328,4.738.016-5.624Z" transform="translate(-382.753 -485.148)" fill="#fff" fill-rule="evenodd"/>
            </g>
          </g>
        </g>
        <g id="Group_41405" data-name="Group 41405" transform="translate(56.168 70.034)" opacity="0.8">
          <g id="Group_41404" data-name="Group 41404">
            <g id="Group_41403" data-name="Group 41403" clip-path="url(#clip-path-15)">
              <path id="Path_9367" data-name="Path 9367" d="M375.385,473.673l.6.333.016-5.613-.6-.346Z" transform="translate(-375.385 -468.047)" fill="#fff" fill-rule="evenodd"/>
            </g>
          </g>
        </g>
        <g id="Group_41408" data-name="Group 41408" transform="translate(87.832 88.315)" opacity="0.8">
          <g id="Group_41407" data-name="Group 41407">
            <g id="Group_41406" data-name="Group 41406" clip-path="url(#clip-path-16)">
              <path id="Path_9368" data-name="Path 9368" d="M587.013,590.224,587,595.837l3.344-.874Z" transform="translate(-586.997 -590.224)" fill="#fff" fill-rule="evenodd"/>
            </g>
          </g>
        </g>
        <g id="Group_41411" data-name="Group 41411" transform="translate(86.634 87.625)" opacity="0.8">
          <g id="Group_41410" data-name="Group 41410">
            <g id="Group_41409" data-name="Group 41409" clip-path="url(#clip-path-17)">
              <path id="Path_9369" data-name="Path 9369" d="M578.989,591.221l.6.345.016-5.613-.6-.344Z" transform="translate(-578.989 -585.608)" fill="#fff" fill-rule="evenodd"/>
            </g>
          </g>
        </g>
        <g id="Group_41414" data-name="Group 41414" transform="translate(77.164 82.155)" opacity="0.8">
          <g id="Group_41413" data-name="Group 41413">
            <g id="Group_41412" data-name="Group 41412" clip-path="url(#clip-path-18)">
              <path id="Path_9370" data-name="Path 9370" d="M515.719,549.057l-.016,5.626,3.333-.893Z" transform="translate(-515.703 -549.057)" fill="#00cedc" fill-rule="evenodd"/>
            </g>
          </g>
        </g>
        <g id="Group_41417" data-name="Group 41417" transform="translate(95.36 92.661)" opacity="0.8">
          <g id="Group_41416" data-name="Group 41416">
            <g id="Group_41415" data-name="Group 41415" clip-path="url(#clip-path-19)">
              <path id="Path_9371" data-name="Path 9371" d="M637.31,624.9l3.334-.893-3.317-4.733Z" transform="translate(-637.31 -619.27)" fill="#fff" fill-rule="evenodd"/>
            </g>
          </g>
        </g>
        <g id="Group_41420" data-name="Group 41420" transform="translate(99.171 94.863)" opacity="0.8">
          <g id="Group_41419" data-name="Group 41419">
            <g id="Group_41418" data-name="Group 41418" clip-path="url(#clip-path-20)">
              <path id="Path_9372" data-name="Path 9372" d="M662.8,633.984l-.016,5.612.61.364.016-5.626Z" transform="translate(-662.78 -633.984)" fill="#fff" fill-rule="evenodd"/>
            </g>
          </g>
        </g>
        <path id="Path_9373" data-name="Path 9373" d="M341.16,643.588l.646-.459.215,1.169.4-.46.726.689.269.769.861.347.726-8.834-.135,9.381.215-.471.215.416.3-.978.242-.6.215,1.9.646,1.007s.672,1.143.726.985.942-5.674.942-5.674l.054,5.141,1.184-7.3-.242,7.6.807-7.135v7.694l.969-3.789.081,2.776.484-1.72.242,3.458.726-2.162.134,3.774.753-1.892-.161,2.681-.054,1.907.484-.913.108,1.378s.431-1.4.484-.966.188,1.626.188,1.626.484-1.747.511-1.5.447.4.484.191c.344-1.937.631-3.781,1.05-5.56l-.43,6.861.256,1.091.39-4.227.538-2.873v2.8l-.431,4.332c-.181,1.83.507-3.241.807-5.063,0,0,.215-1.279.215-.741s-.054,2.688-.054,2.688l-.323,3.785.2.086,1.467-13.206-.646,14.6a34.757,34.757,0,0,0,1.345-6.578l-.323,4.917-.161,2.089.646-3.3.431-1.427.161,1.032.323-.734.215,1.3.431-.674.242.687.027,2.315.215-.848.054.972.43-.512.054.649.619.791.565.975.753-4.044-.108,4.19,1.121-7.111-.153,7.061c1.1-4.085,1.765-16.788,1.56-12.5l-.439,9.206.115-.131.215,1.17.4-.46.726.689.269.77.861.347.726-8.834-.135,9.381.215-.471.215.416.3-.978.242-.6.215,1.9.646,1.008s.672,1.143.726.985.942-5.674.942-5.674l.054,5.142,1.184-7.3-.242,7.6.807-7.135v7.694l.969-3.789.081,2.776.484-1.72.242,3.458.726-2.162.135,3.775.753-1.892-.161,2.68-.054,1.907.484-.913.108,1.379s.431-1.4.484-.966.188,1.625.188,1.625.484-1.747.511-1.5.446.4.484.19c.344-1.937.631-3.781,1.049-5.56l-.43,6.862.256,1.091.39-4.227.538-2.874v2.8l-.43,4.333c-.182,1.83.507-3.241.807-5.063,0,0,.215-1.278.215-.74s-.054,2.687-.054,2.687l-.323,3.785.2.086,1.467-13.206-.646,14.6a34.742,34.742,0,0,0,1.345-6.578l-.323,4.917L384.473,672l.646-3.3.431-1.427.161,1.032.323-.734.215,1.3.431-.673.242.687.027,2.315.215-.848.054.972.43-.512.054.649.619.79.565.976.753-4.044-.108,4.191,1.121-7.111-.153,7.061c.763-4.1,1.466-16.975,1.56-12.5l.29,13.776.892-.485.161,1.252.572-.325-.015,9.611-.615-1.27-.674-.023-.678-.87-.964,10.836c-.4,4.48.109-8.928-.675-14.3l-.318,7.215-.609-8.411-.173,4.3-.457-4.92-.607.3-.646.054-.095.582-.379-1.02-.116.9-.151-1.1-.178,2.274-.278.4-.369-1.181-.293,1.044-.262-1.113-.223.837-.319-1.931-.4-4.049.018,2.272-.014,5.28a60.87,60.87,0,0,0-.858-8.145l-.342,15.3-.538-14.891-.2-.153.061,4.152s-.09,2.2-.126,2.74-.158-.992-.158-.992c-.168-2.17-.5-8.037-.442-6l.128,4.825-.184,2.787-.328-3.5-.1-4.672-.317.784-.039,7.344c-.285-2.267-.439-4.444-.642-6.781-.022-.254-.436-.595-.477-.383a19.019,19.019,0,0,1-.392-2.1s-.208,1.028-.288,1.4-.4-1.536-.4-1.536l-.194,1.246-.4-1.482-.074,1.963-.021,2.861-.6-2.776-.378,3.6-.555-3.014-.46,3.157-.352-2.286-.26,2.669-.68-4.921-.507,7.664-.305-8.062-.268,7.856-.656-8.674-.391,5.058s-.489-6.546-.53-6.767-.762.121-.762.121l-.687.239-.332,1.634-.193-.889-.22-1.324-.234.16-.176-.725-.489,9.5L369,668.1l-.85-.674-.309.448-.743-.174-.357-.936-.284.91-.152-.4-.243,12.665c-.087,4.516.109-8.928-.675-14.3l-.319,7.215-.608-8.411-.173,4.3-.457-4.92-.607.3-.647.054-.095.583-.379-1.02-.116.9-.151-1.1-.178,2.274-.278.4-.369-1.181-.292,1.044-.262-1.113-.223.837-.319-1.931-.4-4.049.018,2.272-.014,5.28a60.849,60.849,0,0,0-.858-8.145l-.342,15.3-.538-14.891-.2-.153.061,4.152s-.09,2.2-.126,2.74-.158-.992-.158-.992c-.168-2.17-.5-8.037-.441-6l.128,4.825-.185,2.787-.327-3.5-.1-4.672-.318.784-.039,7.344c-.285-2.267-.439-4.444-.642-6.781-.022-.254-.436-.595-.477-.383a19,19,0,0,1-.392-2.1s-.208,1.028-.288,1.4-.4-1.536-.4-1.536l-.194,1.246-.4-1.482-.074,1.963-.022,2.861-.6-2.776-.378,3.6-.555-3.014-.46,3.157-.352-2.286-.26,2.669-.68-4.921-.507,7.664-.3-8.062-.268,7.856-.656-8.673-.39,5.058s-.489-6.546-.531-6.767-.762.121-.762.121l-.687.238-.331,1.634-.193-.889-.22-1.324-.234.16-.176-.724-.489,9.5-.115-9.66-.85-.673-.309.448-.743-.174-.357-.936-.284.91-.357-.936Z" transform="translate(-290.09 -541.524)" fill="#4551fb" fill-rule="evenodd"/>
        <path id="Path_9374" data-name="Path 9374" d="M373.457,588.345l1.991,2.726.207.284.209-.043,2.006-.418Z" transform="translate(-317.577 -500.311)" fill="#00cedc" fill-rule="evenodd"/>
        <path id="Path_9375" data-name="Path 9375" d="M500.785,666.313c-.013,4.85-.027,23.374-.041,41.389l.5.286c.014-18.015.028-36.539.04-41.389Zm-12.731,34.022c.014-18,.028-36.5.041-41.349l-.494-.285c-.013,4.846-.027,23.344-.041,41.346Zm-13.189-7.7c.014-17.975.028-36.423.041-41.262l-.494-.285c-.014,4.838-.027,23.284-.041,41.258Z" transform="translate(-403.391 -553.665)" fill="#6bb6ff" fill-rule="evenodd"/>
        <path id="Path_9376" data-name="Path 9376" d="M386.3,600.213c-.014,4.834-.028,23.255-.041,41.214l.494.285c.014-17.96.027-36.379.042-41.213l-.494-.285" transform="translate(-328.461 -510.403)" fill="#00cedc" fill-rule="evenodd"/>
        <g id="Group_41425" data-name="Group 41425" transform="translate(92.566 82.081)" opacity="0.5" style="mix-blend-mode: multiply;isolation: isolate">
          <g id="Group_41424" data-name="Group 41424">
            <g id="Group_41423" data-name="Group 41423" clip-path="url(#clip-path-21)">
              <g id="Group_41422" data-name="Group 41422" transform="translate(0 0)">
                <g id="Group_41421" data-name="Group 41421" clip-path="url(#clip-path-22)">
                  <rect id="Rectangle_1279" data-name="Rectangle 1279" width="22.595" height="75.586" transform="translate(-9.994 1.365) rotate(-7.775)" fill="url(#linear-gradient-3)"/>
                </g>
              </g>
            </g>
          </g>
        </g>
        <path id="Path_9378" data-name="Path 9378" d="M744.093,332.625c-.008,2.686-.965,4.576-2.5,5.466l-2.43,1.461c-8.334-3.557-5.241-45.792-5.749-57.8l2.559-63.013c-2.152-3.76-10.43-7.041-8.5-14.719l-24.426-11.434c-1.085-.738-29.589-17.245-24.473-20.341.856-.518,1.7-1.039,2.548-1.53,1.889-1.118,4.3-.427,6.065.593l48.6,27.879c4.77,2.749,8.513,9.4,8.5,14.718Z" transform="translate(-576.523 -144.684)" fill="#d0e7ff" fill-rule="evenodd"/>
      </g>
    </g>
    <g id="Group_41429" data-name="Group 41429" transform="translate(99.37 26.98)">
      <g id="Group_41428" data-name="Group 41428" clip-path="url(#clip-path-23)">
        <rect id="Rectangle_1282" data-name="Rectangle 1282" width="155.323" height="175.299" transform="matrix(0.796, -0.605, 0.605, 0.796, -81.926, 62.192)" fill="url(#linear-gradient-4)"/>
      </g>
    </g>
    <g id="Group_41436" data-name="Group 41436" transform="translate(0 -0.001)">
      <g id="Group_41435" data-name="Group 41435" clip-path="url(#clip-path-2)">
        <path id="Path_9380" data-name="Path 9380" d="M1045.833,408.709c1.274.736,2.309.145,2.314-1.319a5.067,5.067,0,0,0-2.3-3.982c-1.273-.735-2.31-.145-2.314,1.319a5.068,5.068,0,0,0,2.3,3.981" transform="translate(-887.391 -342.778)" fill="#485af4" fill-rule="evenodd"/>
        <path id="Path_9381" data-name="Path 9381" d="M812.258,279.129c0-.4.283-.555.631-.349,5.051,2.854,13.328,7.513,18.379,10.367a1.411,1.411,0,0,1,.627,1.1v.789c0,.4-.284.555-.631.349-5.051-2.854-13.328-7.513-18.379-10.366a1.41,1.41,0,0,1-.627-1.1Z" transform="translate(-690.721 -236.988)" fill="#485af4" fill-rule="evenodd"/>
        <g id="Group_41434" data-name="Group 41434" transform="translate(99.515 28.755)" opacity="0.5" style="mix-blend-mode: multiply;isolation: isolate">
          <g id="Group_41433" data-name="Group 41433">
            <g id="Group_41432" data-name="Group 41432" clip-path="url(#clip-path-25)">
              <g id="Group_41431" data-name="Group 41431" transform="translate(0 0)">
                <g id="Group_41430" data-name="Group 41430" clip-path="url(#clip-path-26)">
                  <rect id="Rectangle_1283" data-name="Rectangle 1283" width="10.478" height="52.315" transform="translate(-0.56 0.006) rotate(-0.614)" fill="url(#linear-gradient-5)"/>
                </g>
              </g>
            </g>
          </g>
        </g>
        <path id="Path_9383" data-name="Path 9383" d="M532.718,161.682a1.855,1.855,0,0,1-.774,1.7c-.346.211-.69.424-1.036.635-2.5-1.067-1.609-14.391-1.762-18l.8-19.6c-.669-1.17-3.244-2.19-2.643-4.578l-7.6-3.556-19.085-11.695h0c-.028-.169-.268-1.093-.167-1.16s.223-.143.345-.218l.006,0c.258-.156.514-.314.769-.462a1.925,1.925,0,0,1,1.887.185l26.683,15.251a5.833,5.833,0,0,1,2.643,4.578Z" transform="translate(-425.547 -88.917)" fill="#d0e7ff" fill-rule="evenodd"/>
      </g>
    </g>
    <g id="Group_41438" data-name="Group 41438" transform="translate(74.153 16.277)">
      <g id="Group_41437" data-name="Group 41437" clip-path="url(#clip-path-27)">
        <rect id="Rectangle_1286" data-name="Rectangle 1286" width="33.85" height="60.426" transform="matrix(1, -0.03, 0.03, 1, -1.81, 0.055)" fill="url(#linear-gradient-6)"/>
      </g>
    </g>
    <g id="Group_41440" data-name="Group 41440" transform="translate(0 -0.001)">
      <g id="Group_41439" data-name="Group 41439" clip-path="url(#clip-path-2)">
        <path id="Path_9385" data-name="Path 9385" d="M511.316,131.946c0-.2.143-.282.318-.181l3.188,1.822a.7.7,0,0,1,.316.547l-.007,4.412c0,.2-.143.282-.318.181l-3.188-1.822a.7.7,0,0,1-.316-.547Z" transform="translate(-434.802 -112.011)" fill="#ffb7e8" fill-rule="evenodd"/>
        <path id="Path_9386" data-name="Path 9386" d="M541.178,158.885c0-.433.308-.6.685-.379,5.488,3.1,14.481,8.163,19.969,11.263a1.533,1.533,0,0,1,.681,1.191v.857c0,.433-.309.6-.685.379-5.488-3.1-14.481-8.163-19.969-11.263a1.531,1.531,0,0,1-.681-1.191Z" transform="translate(-460.202 -134.705)" fill="#ffb7e8" fill-rule="evenodd"/>
        <path id="Path_9387" data-name="Path 9387" d="M511.31,182.709c0-.433.308-.6.685-.379,5.488,3.1,4.729,2.715,10.216,5.815a1.533,1.533,0,0,1,.681,1.191v.857c0,.433-.308.6-.685.379-5.488-3.1-4.729-2.715-10.216-5.816a1.532,1.532,0,0,1-.681-1.191Z" transform="translate(-434.803 -154.963)" fill="#ffb7e8" fill-rule="evenodd"/>
        <path id="Path_9388" data-name="Path 9388" d="M511.31,212.824c0-.433.308-.6.685-.379,5.488,3.1,4.729,2.715,10.216,5.815a1.533,1.533,0,0,1,.681,1.191v.857c0,.433-.308.6-.685.379-5.488-3.1-4.729-2.715-10.216-5.816a1.532,1.532,0,0,1-.681-1.191Z" transform="translate(-434.803 -180.572)" fill="#ffb7e8" fill-rule="evenodd"/>
        <path id="Path_9389" data-name="Path 9389" d="M511.316,245.216c0-.2.143-.282.318-.181l3.188,1.822a.7.7,0,0,1,.316.547l-.007,4.412c0,.2-.143.282-.318.181l-3.188-1.822a.7.7,0,0,1-.316-.547Z" transform="translate(-434.802 -208.333)" fill="#ffb7e8" fill-rule="evenodd"/>
        <path id="Path_9390" data-name="Path 9390" d="M541.178,272.156c0-.433.308-.6.685-.379,5.488,3.1,14.481,8.163,19.969,11.263a1.533,1.533,0,0,1,.681,1.191v.857c0,.433-.309.6-.685.379-5.488-3.1-14.481-8.163-19.969-11.263a1.531,1.531,0,0,1-.681-1.191Z" transform="translate(-460.202 -231.027)" fill="#ffb7e8" fill-rule="evenodd"/>
        <path id="Path_9391" data-name="Path 9391" d="M511.31,295.979c0-.433.308-.6.685-.379,5.488,3.1,4.729,2.715,10.216,5.815a1.534,1.534,0,0,1,.681,1.191v.857c0,.433-.308.6-.685.379-5.488-3.1-4.729-2.715-10.216-5.816a1.531,1.531,0,0,1-.681-1.191Z" transform="translate(-434.803 -251.285)" fill="#ffb7e8" fill-rule="evenodd"/>
        <path id="Path_9392" data-name="Path 9392" d="M511.31,326.095c0-.433.308-.6.685-.379,5.488,3.1,4.729,2.715,10.216,5.815a1.533,1.533,0,0,1,.681,1.191v.857c0,.433-.308.6-.685.379-5.488-3.1-4.729-2.715-10.216-5.816a1.532,1.532,0,0,1-.681-1.191Z" transform="translate(-434.803 -276.895)" fill="#ffb7e8" fill-rule="evenodd"/>
        <path id="Path_9393" data-name="Path 9393" d="M511.31,356.886c0-.433.308-.6.685-.379,5.488,3.1,4.729,2.715,10.216,5.815a1.533,1.533,0,0,1,.681,1.191v.857c0,.433-.308.6-.685.379-5.488-3.1-4.729-2.715-10.216-5.816a1.532,1.532,0,0,1-.681-1.191Z" transform="translate(-434.803 -303.079)" fill="#ffb7e8" fill-rule="evenodd"/>
        <path id="Path_9394" data-name="Path 9394" d="M1149.938,1039.121c0-1.4-.323-2.277.284-3.039a5.329,5.329,0,0,1,2.1-1.274,4.853,4.853,0,0,1,3.977.686l13.89,7.884a13.946,13.946,0,0,1,6.321,10.95l-.151,10.02a5.193,5.193,0,0,1-1.221,3.719,5.439,5.439,0,0,1-2.763,1.32c-.911.074-1.264-.768-2.38-1.413l-13.889-7.884a13.938,13.938,0,0,1-6.322-10.95Z" transform="translate(-977.745 -879.815)" fill="#d0e7ff" fill-rule="evenodd"/>
      </g>
    </g>
    <g id="Group_41442" data-name="Group 41442" transform="translate(171.028 155.405)">
      <g id="Group_41441" data-name="Group 41441" clip-path="url(#clip-path-29)">
        <rect id="Rectangle_1288" data-name="Rectangle 1288" width="44.121" height="41.239" transform="translate(-15.72 25.808) rotate(-58.671)" fill="url(#linear-gradient-7)"/>
      </g>
    </g>
    <g id="Group_41458" data-name="Group 41458" transform="translate(0 -0.001)">
      <g id="Group_41457" data-name="Group 41457" clip-path="url(#clip-path-2)">
        <path id="Path_9396" data-name="Path 9396" d="M1251.186,1132.584l8.03,8.643-.006,2.2-8.052-.624.007-2.6,5.627.7-5.613-5.738Z" transform="translate(-1063.948 -963.116)" fill="#fff" fill-rule="evenodd"/>
        <path id="Path_9397" data-name="Path 9397" d="M1220.769,1112.323a1.347,1.347,0,0,1,.214.731,4.479,4.479,0,0,1-.177.936l-2.271,9.3c-.072.311-.144.547-.2.717a.488.488,0,0,1-.265.325c-.11.051-.274.016-.5-.113a1.438,1.438,0,0,1-.809-1.283,6.168,6.168,0,0,1,.164-.969l2.262-9.306a2.962,2.962,0,0,1,.339-.961c.1-.152.316-.133.619.042a1.663,1.663,0,0,1,.618.579" transform="translate(-1034.704 -945.272)" fill="#fff" fill-rule="evenodd"/>
        <path id="Path_9398" data-name="Path 9398" d="M1156.6,1106.735l.006-2.227,8.056.637-.008,2.62-5.607-.751,5.593,5.776-.007,2.6Z" transform="translate(-983.538 -939.241)" fill="#fff" fill-rule="evenodd"/>
        <g id="Group_41445" data-name="Group 41445" transform="translate(120.8 61.191)" opacity="0.5">
          <g id="Group_41444" data-name="Group 41444">
            <g id="Group_41443" data-name="Group 41443" clip-path="url(#clip-path-31)">
              <path id="Path_9399" data-name="Path 9399" d="M828.549,421.817l-4.811-2.386a3.546,3.546,0,0,1-1.7-2.226l-1.433-5.837a3.44,3.44,0,0,0-1.69-2.222c-.718-.357-1.441-.257-1.716.528l-1.528,4.358c-.244.708-.939.921-1.716.534l-4.812-2.4c-1.743-.875-2.489,1.237-1.088,3.074l3.87,5.081a2.925,2.925,0,0,1,.627,2.547l-1.541,4.351c-.424,1.191.562,2.908,1.683,3.466a1.412,1.412,0,0,0,1.054.13l3.915-1.222a1.432,1.432,0,0,1,1.058.141,3.085,3.085,0,0,1,1.05.907l3.863,5.093a3.063,3.063,0,0,0,1.047.915c1.119.557,2.129-.167,1.731-1.768l-1.453-5.84c-.229-.937.043-1.707.676-1.9l3.928-1.2c1.414-.434.718-3.258-1.02-4.123" transform="translate(-807.327 -408.949)" fill="#fff" fill-rule="evenodd"/>
            </g>
          </g>
        </g>
        <g id="Group_41448" data-name="Group 41448" transform="translate(122.445 86.232)" opacity="0.8">
          <g id="Group_41447" data-name="Group 41447">
            <g id="Group_41446" data-name="Group 41446" clip-path="url(#clip-path-32)">
              <path id="Path_9400" data-name="Path 9400" d="M818.323,577.252c0-.863.613-1.2,1.365-.755l16.987,9.6a3.054,3.054,0,0,1,1.357,2.372v1.707c0,.863-.615,1.2-1.365.755l-16.987-9.6a3.052,3.052,0,0,1-1.357-2.372Z" transform="translate(-818.322 -576.3)" fill="#fff" fill-rule="evenodd"/>
            </g>
          </g>
        </g>
        <path id="Path_9401" data-name="Path 9401" d="M753.91,916.906c0-.683.486-.959,1.081-.616,7.826,4.488,28.974,16.633,36.8,21.122a2.368,2.368,0,0,1,1.073,1.859l.031,6.757c0,.683-.486.959-1.081.616-7.826-4.489-28.974-16.633-36.8-21.122a2.366,2.366,0,0,1-1.073-1.859Z" transform="translate(-641.103 -779.06)" fill="#fff" fill-rule="evenodd"/>
        <path id="Path_9402" data-name="Path 9402" d="M992.01,789.194l-4.287-2.475-2.116,3.428-2.081-5.851-4.3-2.483,4.419,11.018-4.393,5.782,4.287,2.475,2.047-3.32,1.989,5.65,4.287,2.475-4.332-10.82Z" transform="translate(-832.705 -664.831)" fill="#fff" fill-rule="evenodd"/>
        <path id="Path_9403" data-name="Path 9403" d="M902.024,746.794c-.006,2.058-.037,3.447-1.829,2.413-1.891-1.093-1.929-2.427-1.923-4.579l.026-9.447-3.865-2.232-.027,9.447c-.021,7.29,2.789,9.08,5.4,10.589l.377.217c2.423,1.4,5.712,3.25,5.733-4.16l.026-9.447-3.893-2.248Z" transform="translate(-760.577 -623.278)" fill="#fff" fill-rule="evenodd"/>
        <path id="Path_9404" data-name="Path 9404" d="M822.7,723.489l3.967,2.291,5.665-16.071-3.966-2.29Z" transform="translate(-699.601 -601.567)" fill="#fff" fill-rule="evenodd"/>
        <path id="Path_9405" data-name="Path 9405" d="M791.02,690.091l3.866,2.232.047-16.758-3.866-2.232Z" transform="translate(-672.66 -572.583)" fill="#fff" fill-rule="evenodd"/>
        <path id="Path_9406" data-name="Path 9406" d="M711.33,636.7c-.006,2.057-.051,3.439-1.828,2.413-1.9-1.1-1.929-2.427-1.923-4.579l.027-9.447-3.879-2.24-.027,9.447c-.021,7.29,2.8,9.087,5.415,10.6l.376.217c2.409,1.391,5.717,3.253,5.737-4.157l.026-9.447-3.9-2.25Z" transform="translate(-598.405 -529.647)" fill="#fff" fill-rule="evenodd"/>
        <g id="Group_41451" data-name="Group 41451" transform="translate(102.011 85.453)" opacity="0.5">
          <g id="Group_41450" data-name="Group 41450">
            <g id="Group_41449" data-name="Group 41449" clip-path="url(#clip-path-33)">
              <path id="Path_9407" data-name="Path 9407" d="M682.479,575.015l.007-2.682,2.316,1.337-.007,2.661Zm0,25.826.007-2.683L684.8,599.5l-.007,2.661Zm56.71,6.511.007-2.682,2.316,1.337-.007,2.661Zm0,25.826.007-2.682,2.316,1.337-.007,2.661Zm-53.672-57.689,0,2.077-1.844-1.051.055,21.535,1.782,1.019,0,1.915,52.958,30.423,0-2.146,1.65.943-.055-21.534-1.587-.9,0-1.853Zm-2.349.736.055,21.534-1.463-.836.007,4.33,3.753,2.139,0-1.824,52.958,30.423,0,1.6,3.753,2.139-.007-4.324-1.6-.912-.055-21.535,1.658.945-.007-4.324-3.753-2.145,0,1.893L685.516,574.9l0-1.663L681.76,571.1l.007,4.33Z" transform="translate(-681.76 -571.097)" fill="#fff" fill-rule="evenodd"/>
            </g>
          </g>
        </g>
        <g id="Group_41456" data-name="Group 41456" transform="translate(149.606 69.177)" opacity="0.5" style="mix-blend-mode: multiply;isolation: isolate">
          <g id="Group_41455" data-name="Group 41455">
            <g id="Group_41454" data-name="Group 41454" clip-path="url(#clip-path-34)">
              <g id="Group_41453" data-name="Group 41453" transform="translate(0 0.001)">
                <g id="Group_41452" data-name="Group 41452" clip-path="url(#clip-path-35)">
                  <rect id="Rectangle_1292" data-name="Rectangle 1292" width="22.623" height="77.217" transform="translate(-4.506 -0.565) rotate(-3.388)" fill="url(#linear-gradient-8)"/>
                </g>
              </g>
            </g>
          </g>
        </g>
        <path id="Path_9409" data-name="Path 9409" d="M1028.827,470.578l1.2-.634a1.905,1.905,0,0,1,1.529.271c14.348,8.229,28.666,16.748,43.015,24.978a5.39,5.39,0,0,1,2.443,4.233l.071,56.8a1.794,1.794,0,0,1-.608,1.5c-.452.334-1.382,1.058-2.12.631-14.349-8.23-28.4-17.48-42.748-25.708a5.388,5.388,0,0,1-2.443-4.233Z" transform="translate(-874.885 -399.571)" fill="#d0e7ff" fill-rule="evenodd"/>
      </g>
    </g>
    <g id="Group_41460" data-name="Group 41460" transform="translate(153.213 70.849)">
      <g id="Group_41459" data-name="Group 41459" clip-path="url(#clip-path-36)">
        <rect id="Rectangle_1295" data-name="Rectangle 1295" width="97.216" height="67.133" transform="translate(-19.889 83.807) rotate(-76.65)" fill="url(#linear-gradient-9)"/>
      </g>
    </g>
    <g id="Group_41462" data-name="Group 41462" transform="translate(0 -0.001)">
      <g id="Group_41461" data-name="Group 41461" clip-path="url(#clip-path-2)">
        <path id="Path_9411" data-name="Path 9411" d="M1107.795,775.639l-4.812-2.816a1,1,0,0,0-.694-.188.407.407,0,0,0-.244.171.944.944,0,0,0-.145.457,2.876,2.876,0,0,0,.623,1.832l3.869,5.415a4.56,4.56,0,0,1,.732,1.568,2.649,2.649,0,0,1-.03,1.517l-1.54,4.218a2.086,2.086,0,0,0,.2,1.517,3.37,3.37,0,0,0,1.233,1.452,1.3,1.3,0,0,0,.382.156.731.731,0,0,0,.3,0l3.915-.885a1.644,1.644,0,0,1,.72.007,2.5,2.5,0,0,1,.715.288,3.62,3.62,0,0,1,.659.5,4.473,4.473,0,0,1,.567.658l3.861,5.425a3.556,3.556,0,0,0,.433.507,2.37,2.37,0,0,0,.439.338,1.164,1.164,0,0,0,.549.178.476.476,0,0,0,.309-.091.582.582,0,0,0,.194-.326,1.816,1.816,0,0,0-.036-.866c-.483-1.983-1.066-4.071-1.474-6.056a2.589,2.589,0,0,1,.056-1.447,1.336,1.336,0,0,1,.954-.871c1.25-.335,2.678-.588,3.958-.869a.427.427,0,0,0,.227-.125.928.928,0,0,0,.172-.651,2.9,2.9,0,0,0-.282-1.1,3.174,3.174,0,0,0-1.217-1.411l-4.811-2.8a4.1,4.1,0,0,1-1.228-1.155,4.651,4.651,0,0,1-.733-1.568l-1.433-5.963a3.419,3.419,0,0,0-.542-1.179,2.965,2.965,0,0,0-.885-.836l.453-.866a4.108,4.108,0,0,1,1.234,1.158,4.535,4.535,0,0,1,.719,1.563l1.432,5.958a3.537,3.537,0,0,0,.559,1.187,2.957,2.957,0,0,0,.875.835l4.811,2.8a4.319,4.319,0,0,1,1.673,1.916,3.994,3.994,0,0,1,.382,1.514,1.826,1.826,0,0,1-.417,1.318,1.316,1.316,0,0,1-.7.391l-3.949.867a.468.468,0,0,0-.307.312,1.607,1.607,0,0,0-.02.88l1.467,6.032a2.806,2.806,0,0,1,.037,1.362,1.464,1.464,0,0,1-.517.817,1.409,1.409,0,0,1-.9.28,2.207,2.207,0,0,1-1.064-.326,3.5,3.5,0,0,1-.652-.5,4.651,4.651,0,0,1-.57-.667l-3.863-5.426a3.411,3.411,0,0,0-.426-.494,2.454,2.454,0,0,0-.449-.343,1.4,1.4,0,0,0-.4-.164.653.653,0,0,0-.284-.007l-3.918.884a1.681,1.681,0,0,1-.718,0,2.432,2.432,0,0,1-.709-.283,4.545,4.545,0,0,1-1.689-1.952,3.088,3.088,0,0,1-.243-2.3l1.541-4.218a1.658,1.658,0,0,0,0-.937,3.467,3.467,0,0,0-.553-1.179l-3.869-5.415a3.949,3.949,0,0,1-.827-2.555,1.861,1.861,0,0,1,.312-.914,1.29,1.29,0,0,1,.782-.53,2,2,0,0,1,1.447.313l4.812,2.815Z" transform="translate(-936.161 -654.599)" fill="#fff" fill-rule="evenodd"/>
        <path id="Path_9412" data-name="Path 9412" d="M1145.5,604.78l-2.548-1.356-2.548-1.565c-.052.188-1.042,3.769-2.526,4.183,3.52,6.771,3.889,15.65,3.908,16.118l.835.481-.009-12.175a3.418,3.418,0,0,1-1.181-2.373c0-.952.683-1.332,1.511-.875a3.334,3.334,0,0,1,1.513,2.6c0,.822-.494,1.238-1.166,1.039l0,12.173.828.449c.019-.445.384-8.9,3.893-11.628-1.478-2.1-2.462-6.823-2.514-7.071" transform="translate(-967.615 -511.803)" fill="#1c8df3" fill-rule="evenodd"/>
        <path id="Path_9413" data-name="Path 9413" d="M1152.967,574.407l.007,4.353,5.636,3.232.012-4.342Z" transform="translate(-980.45 -488.458)" fill="#485af4" fill-rule="evenodd"/>
        <path id="Path_9414" data-name="Path 9414" d="M1108.553,627.6l-1.124-.62,0-1.319,1.124.648Zm-11.029-5.617-2.316-1.336-.011-2.665,2.335,1.326Zm-12.311-7.743-1.13-.652,0-1.292,1.129.653Zm-1.347-14.769.007-2.682,2.316,1.337-.007,2.661Zm22.555,12.906.008-2.653,2.316,1.315-.007,2.675Zm.28,12.038.009,1.167-6.4-3.66a6.33,6.33,0,0,0,4.208-.676c2.034-1.18,3.3-3.676,3.358-7.206l1.23.711.357.206-.006-4.331-3.76-2.149.013,4.312,1.45.838c-.047,3.3-1.242,5.639-3.156,6.751a6.676,6.676,0,0,1-5.753.161l-.008-1.645-3.753-2.145,0,1.619a23.538,23.538,0,0,1-5.77-6.741,21.932,21.932,0,0,1-3.164-10.379l1,.569.352.2-.007-4.324-3.753-2.145.007,4.33,1.688.961a23.572,23.572,0,0,0,3.363,11.08,26.726,26.726,0,0,0,4.228,5.5l-6.508-3.722,0-1.182-2.567-1.461.01,2.967,2.19,1.244.358.206,0-1.161,8.573,4.914v1.835l3.382,1.952.377.218.012-1.865,8.441,4.852.01,1.169,2.19,1.264.377.2-.01-2.946Z" transform="translate(-921.077 -506.439)" fill="#fff" fill-rule="evenodd"/>
      </g>
    </g>
    <g id="Group_41464" data-name="Group 41464" transform="translate(135.49 28.251)">
      <g id="Group_41463" data-name="Group 41463" clip-path="url(#clip-path-38)">
        <rect id="Rectangle_1297" data-name="Rectangle 1297" width="124.445" height="128.545" transform="matrix(0.774, -0.633, 0.633, 0.774, -51.227, 41.888)" fill="url(#linear-gradient-10)"/>
      </g>
    </g>
    <g id="Group_41469" data-name="Group 41469" transform="translate(0 -0.001)">
      <g id="Group_41468" data-name="Group 41468" clip-path="url(#clip-path-2)">
        <g id="Group_41467" data-name="Group 41467" transform="translate(47.697 191.5)" opacity="0.2">
          <g id="Group_41466" data-name="Group 41466">
            <g id="Group_41465" data-name="Group 41465" clip-path="url(#clip-path-40)">
              <path id="Path_9416" data-name="Path 9416" d="M371.162,1297.324l-27.78-15.821c-3.028-1.384-7.363-2.485-10.448-.88-2.811,1.463-7.443,4.458-9.49,5.625-1.556.887-6.955,4.122-3.592,5.951,9.893,5.379,19.683,11.429,29.729,16.894a14.09,14.09,0,0,0,7.6,1.165,20.112,20.112,0,0,0,8.228-2.45l4.926-2.867c2.179-1.269,3.334-2.769,3.449-4.156.112-1.355-.759-2.611-2.618-3.46" transform="translate(-318.769 -1279.828)" fill="#5f7ffb" fill-rule="evenodd"/>
            </g>
          </g>
        </g>
      </g>
    </g>
    <g id="Group_41471" data-name="Group 41471" transform="translate(62.643 131.092)">
      <g id="Group_41470" data-name="Group 41470" clip-path="url(#clip-path-41)">
        <rect id="Rectangle_1300" data-name="Rectangle 1300" width="53.568" height="79.364" transform="matrix(0.908, -0.419, 0.419, 0.908, -29.388, 13.418)" fill="url(#linear-gradient-11)"/>
      </g>
    </g>
    <g id="Group_41473" data-name="Group 41473" transform="translate(0 -0.001)">
      <g id="Group_41472" data-name="Group 41472" clip-path="url(#clip-path-2)">
        <path id="Path_9418" data-name="Path 9418" d="M395.361,1326.423a4.276,4.276,0,0,1-.9-.132c-.138-.153-.4-.907-.208-1.048.336-.223,1.02.962,1.111,1.18" transform="translate(-335.203 -1126.924)" fill="#1f202b" fill-rule="evenodd"/>
        <path id="Path_9419" data-name="Path 9419" d="M401.126,1302.933a5.182,5.182,0,0,1-.454,3.049c-1.115,3.683-1.769,3.89-1.3,5.556a7.447,7.447,0,0,0,1.63,2.925,9.424,9.424,0,0,0,1.868,2.056c1.4.965,2.641,1.417,2.337-.52a9.281,9.281,0,0,0-.456-1.8c-.99-2.3-2.142-3.307-1.518-6.177.464-2.13,1.2-3.534.243-4.969Z" transform="translate(-339.485 -1107.976)" fill="#161a40" fill-rule="evenodd"/>
        <path id="Path_9420" data-name="Path 9420" d="M397.439,1275.28a12,12,0,0,1-2.814,5.659c.222-.059.791.522,1.1,1.165,2.305-2.65,3.426-3.938,4.136-2.8a36.366,36.366,0,0,1-.713,4.042,4.028,4.028,0,0,0,.077,2.1c.905,2.173,2.565,5.345,1.931,6.383a3.756,3.756,0,0,0,.471-2.075c0-1.5-.259-3.531-.291-4.78-.043-1.687.595-3.15.7-5.448a18.368,18.368,0,0,0,0-1.924c-.1-1.625-.275-3.78-1.417-4.389a2.938,2.938,0,0,0-2.011.218,2.4,2.4,0,0,0-1.165,1.846" transform="translate(-335.578 -1082.62)" fill="#161f69" fill-rule="evenodd"/>
      </g>
    </g>
    <g id="Group_41475" data-name="Group 41475" transform="translate(77.072 135.23)">
      <g id="Group_41474" data-name="Group 41474" clip-path="url(#clip-path-43)">
        <rect id="Rectangle_1302" data-name="Rectangle 1302" width="71.328" height="50.238" transform="translate(-31.731 54.95) rotate(-60.227)" fill="url(#linear-gradient-12)"/>
      </g>
    </g>
    <g id="Group_41477" data-name="Group 41477" transform="translate(67.264 106.205)">
      <g id="Group_41476" data-name="Group 41476" clip-path="url(#clip-path-44)">
        <rect id="Rectangle_1303" data-name="Rectangle 1303" width="45.608" height="72.891" transform="translate(-20.161 6.587) rotate(-18.092)" fill="url(#linear-gradient-13)"/>
      </g>
    </g>
    <g id="Group_41479" data-name="Group 41479" transform="translate(0 -0.001)">
      <g id="Group_41478" data-name="Group 41478" clip-path="url(#clip-path-2)">
        <path id="Path_9423" data-name="Path 9423" d="M521.588,1322.944c2.142.263,4.141,5.492,5.8,7.765.8,1.1,2.51-.034,1.818-.33a17.852,17.852,0,0,1,2.6.025c1.343.216.872,1.562-.041,2.193-2.033,1.4-3.837,2.2-5.681,1.265a8.79,8.79,0,0,1-1.13-.752,5.661,5.661,0,0,1-.752-.61,20.622,20.622,0,0,1-1.37-2.846c-.18-.324-.328-.394-.444-.306a36.5,36.5,0,0,0,.119,5.956c-.06.27-.977.483-1.16.278l-1.7-8.351a2.979,2.979,0,0,1,.223-2.139,18.505,18.505,0,0,1,1.719-2.147" transform="translate(-441.803 -1124.993)" fill="#161f69" fill-rule="evenodd"/>
        <path id="Path_9424" data-name="Path 9424" d="M544.128,1369.97a3.835,3.835,0,0,1-1.091-.363,8.754,8.754,0,0,1-1.13-.752,5.653,5.653,0,0,1-.753-.61c-.646-.774-.961-2.213-1.679-3.2.239-.147.865-.132,1.492.9.943,1.732,1.589,3.008,2.833,3.848a1.9,1.9,0,0,0,.328.176" transform="translate(-458.754 -1160.738)" fill="#161a40" fill-rule="evenodd"/>
      </g>
    </g>
    <g id="Group_41481" data-name="Group 41481" transform="translate(62.679 106.833)">
      <g id="Group_41480" data-name="Group 41480" clip-path="url(#clip-path-46)">
        <rect id="Rectangle_1305" data-name="Rectangle 1305" width="25.407" height="25.842" transform="translate(-9.186 5.664) rotate(-32.836)" fill="url(#linear-gradient-14)"/>
      </g>
    </g>
    <g id="Group_41483" data-name="Group 41483" transform="translate(105.772 110.358)">
      <g id="Group_41482" data-name="Group 41482" clip-path="url(#clip-path-47)">
        <rect id="Rectangle_1306" data-name="Rectangle 1306" width="14.088" height="13.006" transform="translate(-3.331 1.397) rotate(-22.758)" fill="url(#linear-gradient-15)"/>
      </g>
    </g>
    <g id="Group_41485" data-name="Group 41485" transform="translate(83.3 111.545)">
      <g id="Group_41484" data-name="Group 41484" clip-path="url(#clip-path-48)">
        <rect id="Rectangle_1307" data-name="Rectangle 1307" width="31.078" height="28.868" transform="matrix(0.858, -0.514, 0.514, 0.858, -8.624, 4.923)" fill="url(#linear-gradient-16)"/>
      </g>
    </g>
    <g id="Group_41492" data-name="Group 41492" transform="translate(0 -0.001)">
      <g id="Group_41491" data-name="Group 41491" clip-path="url(#clip-path-2)">
        <g id="Group_41490" data-name="Group 41490" transform="translate(67.264 106.205)" opacity="0.5" style="mix-blend-mode: multiply;isolation: isolate">
          <g id="Group_41489" data-name="Group 41489">
            <g id="Group_41488" data-name="Group 41488" clip-path="url(#clip-path-50)">
              <g id="Group_41487" data-name="Group 41487" transform="translate(0 0)">
                <g id="Group_41486" data-name="Group 41486" clip-path="url(#clip-path-51)">
                  <rect id="Rectangle_1308" data-name="Rectangle 1308" width="29.616" height="68.593" transform="translate(-5.336 0.286) rotate(-4.592)" fill="url(#linear-gradient-17)"/>
                </g>
              </g>
            </g>
          </g>
        </g>
      </g>
    </g>
    <g id="Group_41494" data-name="Group 41494" transform="translate(74.37 97.892)">
      <g id="Group_41493" data-name="Group 41493" clip-path="url(#clip-path-52)">
        <rect id="Rectangle_1311" data-name="Rectangle 1311" width="17.71" height="17.552" transform="translate(-4.176 1.409) rotate(-18.641)" fill="url(#linear-gradient-18)"/>
      </g>
    </g>
    <g id="Group_41496" data-name="Group 41496" transform="translate(0 -0.001)">
      <g id="Group_41495" data-name="Group 41495" clip-path="url(#clip-path-2)">
        <path id="Path_9430" data-name="Path 9430" d="M508.013,608.376c-.522.34-4.227-.892-4.526-.877-2.882.143-5.985-.091-6.556-.942-.774-1.151-2.324-2.408-2.924-4.176-.959-2.825-.772-6.012,1.812-8.231,4.492-3.857,11.539-1.03,12.548,3.338.413,1.792-.1,1.941-.014,3.141a18.551,18.551,0,0,1,.2,4.876c-.078,1.333-.2,2.643-.542,2.869" transform="translate(-419.637 -503.701)" fill="#ffa698" fill-rule="evenodd"/>
        <path id="Path_9431" data-name="Path 9431" d="M509.152,710.431c.158,1.431,4.185,2.44,6.628,1.87.262-.061.425-.11.518-.277a5.244,5.244,0,0,1,1.448,2.313c-2.111,2.035-8.783.842-9.593-1.542a1.793,1.793,0,0,1,1-2.365" transform="translate(-432.007 -604.129)" fill="#c758d8" fill-rule="evenodd"/>
      </g>
    </g>
    <g id="Group_41498" data-name="Group 41498" transform="translate(61.158 87.164)">
      <g id="Group_41497" data-name="Group 41497" clip-path="url(#clip-path-54)">
        <rect id="Rectangle_1313" data-name="Rectangle 1313" width="51.236" height="43.4" transform="translate(-13.911 39.537) rotate(-72.091)" fill="url(#linear-gradient-19)"/>
      </g>
    </g>
    <g id="Group_41535" data-name="Group 41535" transform="translate(0 -0.001)">
      <g id="Group_41534" data-name="Group 41534" clip-path="url(#clip-path-2)">
        <g id="Group_41503" data-name="Group 41503" transform="translate(32.571 5.166)" opacity="0.5">
          <g id="Group_41502" data-name="Group 41502">
            <g id="Group_41501" data-name="Group 41501" clip-path="url(#clip-path-56)">
              <g id="Group_41500" data-name="Group 41500" transform="translate(0 -0.001)">
                <g id="Group_41499" data-name="Group 41499" clip-path="url(#clip-path-57)">
                  <rect id="Rectangle_1314" data-name="Rectangle 1314" width="38.944" height="26.815" transform="matrix(0.231, -0.973, 0.973, 0.231, -7.972, 33.414)" fill="url(#linear-gradient-20)"/>
                </g>
              </g>
            </g>
          </g>
        </g>
        <g id="Group_41508" data-name="Group 41508" transform="translate(217.875 179.062)" opacity="0.5">
          <g id="Group_41507" data-name="Group 41507">
            <g id="Group_41506" data-name="Group 41506" clip-path="url(#clip-path-58)">
              <g id="Group_41505" data-name="Group 41505" transform="translate(0 0)">
                <g id="Group_41504" data-name="Group 41504" clip-path="url(#clip-path-59)">
                  <rect id="Rectangle_1316" data-name="Rectangle 1316" width="24.345" height="20.397" transform="matrix(0.478, -0.878, 0.878, 0.478, -9, 16.418)" fill="url(#linear-gradient-21)"/>
                </g>
              </g>
            </g>
          </g>
        </g>
        <g id="Group_41513" data-name="Group 41513" transform="translate(161.272 24.104)" opacity="0.5">
          <g id="Group_41512" data-name="Group 41512">
            <g id="Group_41511" data-name="Group 41511" clip-path="url(#clip-path-60)">
              <g id="Group_41510" data-name="Group 41510" transform="translate(0.001 0)">
                <g id="Group_41509" data-name="Group 41509" clip-path="url(#clip-path-61)">
                  <rect id="Rectangle_1318" data-name="Rectangle 1318" width="20.21" height="36.05" transform="translate(-1.08 -0.145) rotate(-1.745)" fill="url(#linear-gradient-22)"/>
                </g>
              </g>
            </g>
          </g>
        </g>
        <g id="Group_41518" data-name="Group 41518" transform="translate(147.498 0.001)" opacity="0.5">
          <g id="Group_41517" data-name="Group 41517">
            <g id="Group_41516" data-name="Group 41516" clip-path="url(#clip-path-60)">
              <g id="Group_41515" data-name="Group 41515" transform="translate(0 -0.001)">
                <g id="Group_41514" data-name="Group 41514" clip-path="url(#clip-path-63)">
                  <rect id="Rectangle_1320" data-name="Rectangle 1320" width="40.316" height="33.779" transform="matrix(0.478, -0.878, 0.878, 0.478, -14.904, 27.189)" fill="url(#linear-gradient-23)"/>
                </g>
              </g>
            </g>
          </g>
        </g>
        <g id="Group_41523" data-name="Group 41523" transform="translate(19.658 124.397)" opacity="0.5">
          <g id="Group_41522" data-name="Group 41522">
            <g id="Group_41521" data-name="Group 41521" clip-path="url(#clip-path-64)">
              <g id="Group_41520" data-name="Group 41520" transform="translate(0 0)">
                <g id="Group_41519" data-name="Group 41519" clip-path="url(#clip-path-65)">
                  <rect id="Rectangle_1322" data-name="Rectangle 1322" width="20.21" height="36.05" transform="translate(-1.08 -0.145) rotate(-1.745)" fill="url(#linear-gradient-24)"/>
                </g>
              </g>
            </g>
          </g>
        </g>
        <g id="Group_41528" data-name="Group 41528" transform="translate(0 66.205)" opacity="0.5">
          <g id="Group_41527" data-name="Group 41527">
            <g id="Group_41526" data-name="Group 41526" clip-path="url(#clip-path-66)">
              <g id="Group_41525" data-name="Group 41525" transform="translate(0)">
                <g id="Group_41524" data-name="Group 41524" clip-path="url(#clip-path-67)">
                  <rect id="Rectangle_1324" data-name="Rectangle 1324" width="25.378" height="22.719" transform="matrix(0.501, -0.865, 0.865, 0.501, -9.889, 14.609)" fill="url(#linear-gradient-25)"/>
                </g>
              </g>
            </g>
          </g>
        </g>
        <g id="Group_41533" data-name="Group 41533" transform="translate(175.669 193.536)" opacity="0.5">
          <g id="Group_41532" data-name="Group 41532">
            <g id="Group_41531" data-name="Group 41531" clip-path="url(#clip-path-68)">
              <g id="Group_41530" data-name="Group 41530" transform="translate(0 0)">
                <g id="Group_41529" data-name="Group 41529" clip-path="url(#clip-path-69)">
                  <rect id="Rectangle_1326" data-name="Rectangle 1326" width="35.764" height="28.498" transform="translate(-9.457 26.833) rotate(-73.595)" fill="url(#linear-gradient-26)"/>
                </g>
              </g>
            </g>
          </g>
        </g>
      </g>
    </g>
  </g>
</svg>
