<svg id="vector" xmlns="http://www.w3.org/2000/svg" width="80.201" height="77.257" viewBox="0 0 80.201 77.257">
  <g id="Group_41605" data-name="Group 41605">
    <g id="Group_41604" data-name="Group 41604">
      <path id="Path_9544" data-name="Path 9544" d="M77.851,0h-9.4A2.35,2.35,0,0,0,66.1,2.35V4.7H46.745a7.047,7.047,0,0,0-13.29,0H14.1V2.35A2.35,2.35,0,0,0,11.748,0H2.35A2.35,2.35,0,0,0,0,2.35v9.4A2.35,2.35,0,0,0,2.35,14.1h9.4a2.35,2.35,0,0,0,2.35-2.35V9.367h9.771A30.869,30.869,0,0,0,9.619,33.434a7.046,7.046,0,1,0,4.709.047,26.235,26.235,0,0,1,19.459-23.3,7.045,7.045,0,0,0,12.627,0,26.235,26.235,0,0,1,19.459,23.3,7.052,7.052,0,1,0,4.709-.047A30.814,30.814,0,0,0,56.332,9.4H66.1v2.35a2.35,2.35,0,0,0,2.35,2.35h9.4a2.35,2.35,0,0,0,2.35-2.35V2.35A2.35,2.35,0,0,0,77.851,0ZM9.4,9.4H4.7V4.7H9.4ZM11.9,42.45a2.35,2.35,0,1,1,2.35-2.35A2.352,2.352,0,0,1,11.9,42.45ZM40.1,9.4a2.35,2.35,0,1,1,2.35-2.35A2.352,2.352,0,0,1,40.1,9.4ZM68.3,37.751a2.35,2.35,0,1,1-2.35,2.35A2.352,2.352,0,0,1,68.3,37.751ZM75.5,9.4H70.8V4.7h4.7Z" fill="#1fad95"/>
    </g>
  </g>
  <g id="Group_41607" data-name="Group 41607" transform="translate(18.954 16.012)">
    <g id="Group_41606" data-name="Group 41606">
      <path id="Path_9545" data-name="Path 9545" d="M162.9,150.25l-18.8-28.2,0,0-.021-.029c-.032-.047-.066-.092-.1-.136a2.349,2.349,0,0,0-3.762.136l-.021.029,0,0-18.8,28.2a2.349,2.349,0,0,0,.294,2.965,29.768,29.768,0,0,1,8.484,17.372,12.108,12.108,0,0,0-1.051.953,11.909,11.909,0,0,0-3.422,8.366,2.35,2.35,0,0,0,2.35,2.35h28.2a2.35,2.35,0,0,0,2.35-2.35,11.91,11.91,0,0,0-3.422-8.367,12.11,12.11,0,0,0-1.051-.953,29.765,29.765,0,0,1,8.484-17.372A2.35,2.35,0,0,0,162.9,150.25ZM142.147,149.2a2.35,2.35,0,1,1-2.35,2.35A2.352,2.352,0,0,1,142.147,149.2ZM130.8,177.557a7.177,7.177,0,0,1,6.648-4.856h9.4a7.177,7.177,0,0,1,6.648,4.856Zm18.9-9.2a11.543,11.543,0,0,0-2.858-.358h-9.4a11.537,11.537,0,0,0-2.858.358,34.479,34.479,0,0,0-8.247-17.058L139.8,131.119v13.791a7.049,7.049,0,1,0,4.7,0V131.119L157.951,151.3A34.474,34.474,0,0,0,149.7,168.359Z" transform="translate(-121 -121.01)" fill="#1fad95"/>
    </g>
  </g>
</svg>
